<?xml version="1.0" encoding="utf-8"?>
<svg xmlns="http://www.w3.org/2000/svg" xmlns:xlink="http://www.w3.org/1999/xlink" width="600" height="400" viewBox="0 0 2400 1600">
<defs>
  <clipPath id="clip960">
    <rect x="0" y="0" width="2400" height="1600"/>
  </clipPath>
</defs>
<path clip-path="url(#clip960)" d="M0 1600 L2400 1600 L2400 0 L0 0  Z" fill="#ffffff" fill-rule="evenodd" fill-opacity="1"/>
<defs>
  <clipPath id="clip961">
    <rect x="480" y="0" width="1681" height="1600"/>
  </clipPath>
</defs>
<path clip-path="url(#clip960)" d="M220.716 1423.18 L2352.76 1423.18 L2352.76 47.2441 L220.716 47.2441  Z" fill="#ffffff" fill-rule="evenodd" fill-opacity="1"/>
<defs>
  <clipPath id="clip962">
    <rect x="220" y="47" width="2133" height="1377"/>
  </clipPath>
</defs>
<polyline clip-path="url(#clip962)" style="stroke:#000000; stroke-linecap:round; stroke-linejoin:round; stroke-width:2; stroke-opacity:0.1; fill:none" points="568.393,1423.18 568.393,47.2441 "/>
<polyline clip-path="url(#clip962)" style="stroke:#000000; stroke-linecap:round; stroke-linejoin:round; stroke-width:2; stroke-opacity:0.1; fill:none" points="1143.07,1423.18 1143.07,47.2441 "/>
<polyline clip-path="url(#clip962)" style="stroke:#000000; stroke-linecap:round; stroke-linejoin:round; stroke-width:2; stroke-opacity:0.1; fill:none" points="1717.74,1423.18 1717.74,47.2441 "/>
<polyline clip-path="url(#clip962)" style="stroke:#000000; stroke-linecap:round; stroke-linejoin:round; stroke-width:2; stroke-opacity:0.1; fill:none" points="2292.42,1423.18 2292.42,47.2441 "/>
<polyline clip-path="url(#clip962)" style="stroke:#000000; stroke-linecap:round; stroke-linejoin:round; stroke-width:2; stroke-opacity:0.1; fill:none" points="568.393,1423.18 568.393,47.2441 "/>
<polyline clip-path="url(#clip962)" style="stroke:#000000; stroke-linecap:round; stroke-linejoin:round; stroke-width:2; stroke-opacity:0.1; fill:none" points="1143.07,1423.18 1143.07,47.2441 "/>
<polyline clip-path="url(#clip962)" style="stroke:#000000; stroke-linecap:round; stroke-linejoin:round; stroke-width:2; stroke-opacity:0.1; fill:none" points="1717.74,1423.18 1717.74,47.2441 "/>
<polyline clip-path="url(#clip962)" style="stroke:#000000; stroke-linecap:round; stroke-linejoin:round; stroke-width:2; stroke-opacity:0.1; fill:none" points="2292.42,1423.18 2292.42,47.2441 "/>
<polyline clip-path="url(#clip962)" style="stroke:#000000; stroke-linecap:round; stroke-linejoin:round; stroke-width:2; stroke-opacity:0.1; fill:none" points="220.716,1164.64 2352.76,1164.64 "/>
<polyline clip-path="url(#clip962)" style="stroke:#000000; stroke-linecap:round; stroke-linejoin:round; stroke-width:2; stroke-opacity:0.1; fill:none" points="220.716,305.785 2352.76,305.785 "/>
<polyline clip-path="url(#clip962)" style="stroke:#000000; stroke-linecap:round; stroke-linejoin:round; stroke-width:2; stroke-opacity:0.1; fill:none" points="220.716,1164.64 2352.76,1164.64 "/>
<polyline clip-path="url(#clip962)" style="stroke:#000000; stroke-linecap:round; stroke-linejoin:round; stroke-width:2; stroke-opacity:0.1; fill:none" points="220.716,305.785 2352.76,305.785 "/>
<polyline clip-path="url(#clip960)" style="stroke:#000000; stroke-linecap:round; stroke-linejoin:round; stroke-width:4; stroke-opacity:1; fill:none" points="220.716,1423.18 2352.76,1423.18 "/>
<polyline clip-path="url(#clip960)" style="stroke:#000000; stroke-linecap:round; stroke-linejoin:round; stroke-width:4; stroke-opacity:1; fill:none" points="220.716,47.2441 2352.76,47.2441 "/>
<polyline clip-path="url(#clip960)" style="stroke:#000000; stroke-linecap:round; stroke-linejoin:round; stroke-width:4; stroke-opacity:1; fill:none" points="568.393,1423.18 568.393,1404.28 "/>
<polyline clip-path="url(#clip960)" style="stroke:#000000; stroke-linecap:round; stroke-linejoin:round; stroke-width:4; stroke-opacity:1; fill:none" points="1143.07,1423.18 1143.07,1404.28 "/>
<polyline clip-path="url(#clip960)" style="stroke:#000000; stroke-linecap:round; stroke-linejoin:round; stroke-width:4; stroke-opacity:1; fill:none" points="1717.74,1423.18 1717.74,1404.28 "/>
<polyline clip-path="url(#clip960)" style="stroke:#000000; stroke-linecap:round; stroke-linejoin:round; stroke-width:4; stroke-opacity:1; fill:none" points="2292.42,1423.18 2292.42,1404.28 "/>
<polyline clip-path="url(#clip960)" style="stroke:#000000; stroke-linecap:round; stroke-linejoin:round; stroke-width:4; stroke-opacity:1; fill:none" points="568.393,47.2441 568.393,66.1417 "/>
<polyline clip-path="url(#clip960)" style="stroke:#000000; stroke-linecap:round; stroke-linejoin:round; stroke-width:4; stroke-opacity:1; fill:none" points="1143.07,47.2441 1143.07,66.1417 "/>
<polyline clip-path="url(#clip960)" style="stroke:#000000; stroke-linecap:round; stroke-linejoin:round; stroke-width:4; stroke-opacity:1; fill:none" points="1717.74,47.2441 1717.74,66.1417 "/>
<polyline clip-path="url(#clip960)" style="stroke:#000000; stroke-linecap:round; stroke-linejoin:round; stroke-width:4; stroke-opacity:1; fill:none" points="2292.42,47.2441 2292.42,66.1417 "/>
<path clip-path="url(#clip960)" d="M563.046 1481.64 L579.365 1481.64 L579.365 1485.58 L557.421 1485.58 L557.421 1481.64 Q560.083 1478.89 564.666 1474.26 Q569.273 1469.61 570.453 1468.27 Q572.699 1465.74 573.578 1464.01 Q574.481 1462.25 574.481 1460.56 Q574.481 1457.8 572.537 1456.07 Q570.615 1454.33 567.514 1454.33 Q565.315 1454.33 562.861 1455.09 Q560.43 1455.86 557.653 1457.41 L557.653 1452.69 Q560.477 1451.55 562.93 1450.97 Q565.384 1450.39 567.421 1450.39 Q572.791 1450.39 575.986 1453.08 Q579.18 1455.77 579.18 1460.26 Q579.18 1462.39 578.37 1464.31 Q577.583 1466.2 575.477 1468.8 Q574.898 1469.47 571.796 1472.69 Q568.694 1475.88 563.046 1481.64 Z" fill="#000000" fill-rule="nonzero" fill-opacity="1" /><path clip-path="url(#clip960)" d="M1146.08 1455.09 L1134.27 1473.54 L1146.08 1473.54 L1146.08 1455.09 M1144.85 1451.02 L1150.73 1451.02 L1150.73 1473.54 L1155.66 1473.54 L1155.66 1477.43 L1150.73 1477.43 L1150.73 1485.58 L1146.08 1485.58 L1146.08 1477.43 L1130.47 1477.43 L1130.47 1472.92 L1144.85 1451.02 Z" fill="#000000" fill-rule="nonzero" fill-opacity="1" /><path clip-path="url(#clip960)" d="M1718.15 1466.44 Q1715 1466.44 1713.15 1468.59 Q1711.32 1470.74 1711.32 1474.49 Q1711.32 1478.22 1713.15 1480.39 Q1715 1482.55 1718.15 1482.55 Q1721.29 1482.55 1723.12 1480.39 Q1724.97 1478.22 1724.97 1474.49 Q1724.97 1470.74 1723.12 1468.59 Q1721.29 1466.44 1718.15 1466.44 M1727.43 1451.78 L1727.43 1456.04 Q1725.67 1455.21 1723.86 1454.77 Q1722.08 1454.33 1720.32 1454.33 Q1715.69 1454.33 1713.24 1457.45 Q1710.81 1460.58 1710.46 1466.9 Q1711.83 1464.89 1713.89 1463.82 Q1715.95 1462.73 1718.42 1462.73 Q1723.63 1462.73 1726.64 1465.9 Q1729.67 1469.05 1729.67 1474.49 Q1729.67 1479.82 1726.53 1483.03 Q1723.38 1486.25 1718.15 1486.25 Q1712.15 1486.25 1708.98 1481.67 Q1705.81 1477.06 1705.81 1468.33 Q1705.81 1460.14 1709.7 1455.28 Q1713.59 1450.39 1720.14 1450.39 Q1721.9 1450.39 1723.68 1450.74 Q1725.48 1451.09 1727.43 1451.78 Z" fill="#000000" fill-rule="nonzero" fill-opacity="1" /><path clip-path="url(#clip960)" d="M2292.42 1469.17 Q2289.08 1469.17 2287.16 1470.95 Q2285.26 1472.73 2285.26 1475.86 Q2285.26 1478.98 2287.16 1480.77 Q2289.08 1482.55 2292.42 1482.55 Q2295.75 1482.55 2297.67 1480.77 Q2299.59 1478.96 2299.59 1475.86 Q2299.59 1472.73 2297.67 1470.95 Q2295.77 1469.17 2292.42 1469.17 M2287.74 1467.18 Q2284.73 1466.44 2283.04 1464.38 Q2281.37 1462.32 2281.37 1459.35 Q2281.37 1455.21 2284.31 1452.8 Q2287.28 1450.39 2292.42 1450.39 Q2297.58 1450.39 2300.52 1452.8 Q2303.46 1455.21 2303.46 1459.35 Q2303.46 1462.32 2301.77 1464.38 Q2300.1 1466.44 2297.11 1467.18 Q2300.49 1467.96 2302.37 1470.26 Q2304.27 1472.55 2304.27 1475.86 Q2304.27 1480.88 2301.19 1483.57 Q2298.13 1486.25 2292.42 1486.25 Q2286.7 1486.25 2283.62 1483.57 Q2280.56 1480.88 2280.56 1475.86 Q2280.56 1472.55 2282.46 1470.26 Q2284.36 1467.96 2287.74 1467.18 M2286.03 1459.79 Q2286.03 1462.48 2287.69 1463.98 Q2289.38 1465.49 2292.42 1465.49 Q2295.42 1465.49 2297.11 1463.98 Q2298.83 1462.48 2298.83 1459.79 Q2298.83 1457.11 2297.11 1455.6 Q2295.42 1454.1 2292.42 1454.1 Q2289.38 1454.1 2287.69 1455.6 Q2286.03 1457.11 2286.03 1459.79 Z" fill="#000000" fill-rule="nonzero" fill-opacity="1" /><path clip-path="url(#clip960)" d="M1105.9 1539.37 L1096.64 1539.37 L1093.97 1550 L1103.29 1550 L1105.9 1539.37 M1101.13 1521.26 L1097.82 1534.46 L1107.11 1534.46 L1110.45 1521.26 L1115.55 1521.26 L1112.27 1534.46 L1122.2 1534.46 L1122.2 1539.37 L1111.03 1539.37 L1108.42 1550 L1118.54 1550 L1118.54 1554.87 L1107.18 1554.87 L1103.86 1568.04 L1098.77 1568.04 L1102.05 1554.87 L1092.72 1554.87 L1089.45 1568.04 L1084.32 1568.04 L1087.63 1554.87 L1077.61 1554.87 L1077.61 1550 L1088.81 1550 L1091.48 1539.37 L1081.23 1539.37 L1081.23 1534.46 L1092.72 1534.46 L1095.97 1521.26 L1101.13 1521.26 Z" fill="#000000" fill-rule="nonzero" fill-opacity="1" /><path clip-path="url(#clip960)" d="M1159.72 1562.7 L1159.72 1581.6 L1153.84 1581.6 L1153.84 1532.4 L1159.72 1532.4 L1159.72 1537.81 Q1161.57 1534.62 1164.37 1533.1 Q1167.2 1531.54 1171.12 1531.54 Q1177.61 1531.54 1181.65 1536.69 Q1185.73 1541.85 1185.73 1550.25 Q1185.73 1558.65 1181.65 1563.81 Q1177.61 1568.97 1171.12 1568.97 Q1167.2 1568.97 1164.37 1567.44 Q1161.57 1565.88 1159.72 1562.7 M1179.65 1550.25 Q1179.65 1543.79 1176.98 1540.13 Q1174.33 1536.44 1169.69 1536.44 Q1165.04 1536.44 1162.37 1540.13 Q1159.72 1543.79 1159.72 1550.25 Q1159.72 1556.71 1162.37 1560.4 Q1165.04 1564.07 1169.69 1564.07 Q1174.33 1564.07 1176.98 1560.4 Q1179.65 1556.71 1179.65 1550.25 Z" fill="#000000" fill-rule="nonzero" fill-opacity="1" /><path clip-path="url(#clip960)" d="M1216.09 1537.87 Q1215.11 1537.3 1213.93 1537.04 Q1212.78 1536.76 1211.38 1536.76 Q1206.42 1536.76 1203.74 1540 Q1201.1 1543.22 1201.1 1549.27 L1201.1 1568.04 L1195.21 1568.04 L1195.21 1532.4 L1201.1 1532.4 L1201.1 1537.93 Q1202.95 1534.69 1205.91 1533.13 Q1208.87 1531.54 1213.1 1531.54 Q1213.71 1531.54 1214.44 1531.63 Q1215.17 1531.7 1216.06 1531.85 L1216.09 1537.87 Z" fill="#000000" fill-rule="nonzero" fill-opacity="1" /><path clip-path="url(#clip960)" d="M1234.62 1536.5 Q1229.91 1536.5 1227.17 1540.19 Q1224.43 1543.85 1224.43 1550.25 Q1224.43 1556.65 1227.14 1560.34 Q1229.87 1564 1234.62 1564 Q1239.3 1564 1242.03 1560.31 Q1244.77 1556.62 1244.77 1550.25 Q1244.77 1543.92 1242.03 1540.23 Q1239.3 1536.5 1234.62 1536.5 M1234.62 1531.54 Q1242.26 1531.54 1246.62 1536.5 Q1250.98 1541.47 1250.98 1550.25 Q1250.98 1559 1246.62 1564 Q1242.26 1568.97 1234.62 1568.97 Q1226.95 1568.97 1222.59 1564 Q1218.26 1559 1218.26 1550.25 Q1218.26 1541.47 1222.59 1536.5 Q1226.95 1531.54 1234.62 1531.54 Z" fill="#000000" fill-rule="nonzero" fill-opacity="1" /><path clip-path="url(#clip960)" d="M1286.34 1533.76 L1286.34 1539.24 Q1283.86 1537.87 1281.34 1537.2 Q1278.86 1536.5 1276.31 1536.5 Q1270.61 1536.5 1267.46 1540.13 Q1264.31 1543.73 1264.31 1550.25 Q1264.31 1556.78 1267.46 1560.4 Q1270.61 1564 1276.31 1564 Q1278.86 1564 1281.34 1563.33 Q1283.86 1562.63 1286.34 1561.26 L1286.34 1566.68 Q1283.89 1567.82 1281.25 1568.39 Q1278.64 1568.97 1275.68 1568.97 Q1267.62 1568.97 1262.88 1563.91 Q1258.14 1558.85 1258.14 1550.25 Q1258.14 1541.53 1262.91 1536.53 Q1267.72 1531.54 1276.06 1531.54 Q1278.76 1531.54 1281.34 1532.11 Q1283.92 1532.65 1286.34 1533.76 Z" fill="#000000" fill-rule="nonzero" fill-opacity="1" /><path clip-path="url(#clip960)" d="M1327.01 1548.76 L1327.01 1551.62 L1300.09 1551.62 Q1300.47 1557.67 1303.72 1560.85 Q1306.99 1564 1312.82 1564 Q1316.19 1564 1319.34 1563.17 Q1322.53 1562.35 1325.65 1560.69 L1325.65 1566.23 Q1322.5 1567.57 1319.18 1568.27 Q1315.87 1568.97 1312.47 1568.97 Q1303.94 1568.97 1298.94 1564 Q1293.98 1559.04 1293.98 1550.57 Q1293.98 1541.82 1298.69 1536.69 Q1303.43 1531.54 1311.45 1531.54 Q1318.64 1531.54 1322.81 1536.18 Q1327.01 1540.8 1327.01 1548.76 M1321.16 1547.04 Q1321.09 1542.23 1318.45 1539.37 Q1315.84 1536.5 1311.51 1536.5 Q1306.61 1536.5 1303.65 1539.27 Q1300.72 1542.04 1300.28 1547.07 L1321.16 1547.04 Z" fill="#000000" fill-rule="nonzero" fill-opacity="1" /><path clip-path="url(#clip960)" d="M1359.35 1533.45 L1359.35 1538.98 Q1356.87 1537.71 1354.2 1537.07 Q1351.52 1536.44 1348.66 1536.44 Q1344.3 1536.44 1342.1 1537.77 Q1339.94 1539.11 1339.94 1541.79 Q1339.94 1543.82 1341.5 1545 Q1343.06 1546.15 1347.77 1547.2 L1349.77 1547.64 Q1356.01 1548.98 1358.62 1551.43 Q1361.26 1553.85 1361.26 1558.21 Q1361.26 1563.17 1357.32 1566.07 Q1353.4 1568.97 1346.53 1568.97 Q1343.66 1568.97 1340.54 1568.39 Q1337.45 1567.85 1334.02 1566.74 L1334.02 1560.69 Q1337.26 1562.38 1340.41 1563.24 Q1343.57 1564.07 1346.65 1564.07 Q1350.79 1564.07 1353.02 1562.66 Q1355.25 1561.23 1355.25 1558.65 Q1355.25 1556.27 1353.62 1554.99 Q1352.03 1553.72 1346.59 1552.54 L1344.55 1552.07 Q1339.11 1550.92 1336.69 1548.56 Q1334.27 1546.18 1334.27 1542.04 Q1334.27 1537.01 1337.84 1534.27 Q1341.4 1531.54 1347.96 1531.54 Q1351.2 1531.54 1354.07 1532.01 Q1356.93 1532.49 1359.35 1533.45 Z" fill="#000000" fill-rule="nonzero" fill-opacity="1" /><path clip-path="url(#clip960)" d="M1393.31 1533.45 L1393.31 1538.98 Q1390.83 1537.71 1388.16 1537.07 Q1385.48 1536.44 1382.62 1536.44 Q1378.26 1536.44 1376.06 1537.77 Q1373.9 1539.11 1373.9 1541.79 Q1373.9 1543.82 1375.46 1545 Q1377.02 1546.15 1381.73 1547.2 L1383.73 1547.64 Q1389.97 1548.98 1392.58 1551.43 Q1395.22 1553.85 1395.22 1558.21 Q1395.22 1563.17 1391.28 1566.07 Q1387.36 1568.97 1380.49 1568.97 Q1377.62 1568.97 1374.5 1568.39 Q1371.42 1567.85 1367.98 1566.74 L1367.98 1560.69 Q1371.22 1562.38 1374.38 1563.24 Q1377.53 1564.07 1380.61 1564.07 Q1384.75 1564.07 1386.98 1562.66 Q1389.21 1561.23 1389.21 1558.65 Q1389.21 1556.27 1387.58 1554.99 Q1385.99 1553.72 1380.55 1552.54 L1378.51 1552.07 Q1373.07 1550.92 1370.65 1548.56 Q1368.23 1546.18 1368.23 1542.04 Q1368.23 1537.01 1371.8 1534.27 Q1375.36 1531.54 1381.92 1531.54 Q1385.17 1531.54 1388.03 1532.01 Q1390.89 1532.49 1393.31 1533.45 Z" fill="#000000" fill-rule="nonzero" fill-opacity="1" /><path clip-path="url(#clip960)" d="M1418.36 1536.5 Q1413.65 1536.5 1410.91 1540.19 Q1408.18 1543.85 1408.18 1550.25 Q1408.18 1556.65 1410.88 1560.34 Q1413.62 1564 1418.36 1564 Q1423.04 1564 1425.78 1560.31 Q1428.52 1556.62 1428.52 1550.25 Q1428.52 1543.92 1425.78 1540.23 Q1423.04 1536.5 1418.36 1536.5 M1418.36 1531.54 Q1426 1531.54 1430.36 1536.5 Q1434.72 1541.47 1434.72 1550.25 Q1434.72 1559 1430.36 1564 Q1426 1568.97 1418.36 1568.97 Q1410.69 1568.97 1406.33 1564 Q1402 1559 1402 1550.25 Q1402 1541.47 1406.33 1536.5 Q1410.69 1531.54 1418.36 1531.54 Z" fill="#000000" fill-rule="nonzero" fill-opacity="1" /><path clip-path="url(#clip960)" d="M1465.09 1537.87 Q1464.1 1537.3 1462.92 1537.04 Q1461.78 1536.76 1460.38 1536.76 Q1455.41 1536.76 1452.74 1540 Q1450.1 1543.22 1450.1 1549.27 L1450.1 1568.04 L1444.21 1568.04 L1444.21 1532.4 L1450.1 1532.4 L1450.1 1537.93 Q1451.94 1534.69 1454.9 1533.13 Q1457.86 1531.54 1462.1 1531.54 Q1462.7 1531.54 1463.43 1531.63 Q1464.16 1531.7 1465.06 1531.85 L1465.09 1537.87 Z" fill="#000000" fill-rule="nonzero" fill-opacity="1" /><path clip-path="url(#clip960)" d="M1493.96 1533.45 L1493.96 1538.98 Q1491.47 1537.71 1488.8 1537.07 Q1486.13 1536.44 1483.26 1536.44 Q1478.9 1536.44 1476.7 1537.77 Q1474.54 1539.11 1474.54 1541.79 Q1474.54 1543.82 1476.1 1545 Q1477.66 1546.15 1482.37 1547.2 L1484.37 1547.64 Q1490.61 1548.98 1493.22 1551.43 Q1495.87 1553.85 1495.87 1558.21 Q1495.87 1563.17 1491.92 1566.07 Q1488 1568.97 1481.13 1568.97 Q1478.26 1568.97 1475.14 1568.39 Q1472.06 1567.85 1468.62 1566.74 L1468.62 1560.69 Q1471.87 1562.38 1475.02 1563.24 Q1478.17 1564.07 1481.26 1564.07 Q1485.39 1564.07 1487.62 1562.66 Q1489.85 1561.23 1489.85 1558.65 Q1489.85 1556.27 1488.23 1554.99 Q1486.63 1553.72 1481.19 1552.54 L1479.16 1552.07 Q1473.71 1550.92 1471.29 1548.56 Q1468.87 1546.18 1468.87 1542.04 Q1468.87 1537.01 1472.44 1534.27 Q1476 1531.54 1482.56 1531.54 Q1485.81 1531.54 1488.67 1532.01 Q1491.54 1532.49 1493.96 1533.45 Z" fill="#000000" fill-rule="nonzero" fill-opacity="1" /><polyline clip-path="url(#clip960)" style="stroke:#000000; stroke-linecap:round; stroke-linejoin:round; stroke-width:4; stroke-opacity:1; fill:none" points="220.716,1423.18 220.716,47.2441 "/>
<polyline clip-path="url(#clip960)" style="stroke:#000000; stroke-linecap:round; stroke-linejoin:round; stroke-width:4; stroke-opacity:1; fill:none" points="2352.76,1423.18 2352.76,47.2441 "/>
<polyline clip-path="url(#clip960)" style="stroke:#000000; stroke-linecap:round; stroke-linejoin:round; stroke-width:4; stroke-opacity:1; fill:none" points="220.716,1164.64 239.613,1164.64 "/>
<polyline clip-path="url(#clip960)" style="stroke:#000000; stroke-linecap:round; stroke-linejoin:round; stroke-width:4; stroke-opacity:1; fill:none" points="220.716,305.785 239.613,305.785 "/>
<polyline clip-path="url(#clip960)" style="stroke:#000000; stroke-linecap:round; stroke-linejoin:round; stroke-width:4; stroke-opacity:1; fill:none" points="2352.76,1164.64 2333.86,1164.64 "/>
<polyline clip-path="url(#clip960)" style="stroke:#000000; stroke-linecap:round; stroke-linejoin:round; stroke-width:4; stroke-opacity:1; fill:none" points="2352.76,305.785 2333.86,305.785 "/>
<path clip-path="url(#clip960)" d="M115.59 1184.43 L123.229 1184.43 L123.229 1158.07 L114.918 1159.73 L114.918 1155.47 L123.182 1153.81 L127.858 1153.81 L127.858 1184.43 L135.497 1184.43 L135.497 1188.37 L115.59 1188.37 L115.59 1184.43 Z" fill="#000000" fill-rule="nonzero" fill-opacity="1" /><path clip-path="url(#clip960)" d="M154.941 1156.89 Q151.33 1156.89 149.502 1160.45 Q147.696 1163.99 147.696 1171.12 Q147.696 1178.23 149.502 1181.79 Q151.33 1185.33 154.941 1185.33 Q158.576 1185.33 160.381 1181.79 Q162.21 1178.23 162.21 1171.12 Q162.21 1163.99 160.381 1160.45 Q158.576 1156.89 154.941 1156.89 M154.941 1153.18 Q160.752 1153.18 163.807 1157.79 Q166.886 1162.37 166.886 1171.12 Q166.886 1179.85 163.807 1184.45 Q160.752 1189.04 154.941 1189.04 Q149.131 1189.04 146.053 1184.45 Q142.997 1179.85 142.997 1171.12 Q142.997 1162.37 146.053 1157.79 Q149.131 1153.18 154.941 1153.18 Z" fill="#000000" fill-rule="nonzero" fill-opacity="1" /><path clip-path="url(#clip960)" d="M171.456 1157.76 L184.716 1157.76 L184.716 1160.96 L166.886 1160.96 L166.886 1157.76 Q169.049 1155.52 172.773 1151.76 Q176.515 1147.98 177.475 1146.89 Q179.299 1144.84 180.014 1143.43 Q180.747 1142 180.747 1140.63 Q180.747 1138.39 179.167 1136.98 Q177.606 1135.57 175.086 1135.57 Q173.299 1135.57 171.306 1136.19 Q169.331 1136.81 167.074 1138.07 L167.074 1134.23 Q169.368 1133.31 171.362 1132.84 Q173.356 1132.37 175.011 1132.37 Q179.374 1132.37 181.97 1134.55 Q184.565 1136.73 184.565 1140.38 Q184.565 1142.11 183.907 1143.67 Q183.267 1145.21 181.556 1147.32 Q181.086 1147.87 178.565 1150.48 Q176.045 1153.08 171.456 1157.76 Z" fill="#000000" fill-rule="nonzero" fill-opacity="1" /><path clip-path="url(#clip960)" d="M114.931 325.577 L122.57 325.577 L122.57 299.212 L114.26 300.878 L114.26 296.619 L122.524 294.953 L127.2 294.953 L127.2 325.577 L134.839 325.577 L134.839 329.513 L114.931 329.513 L114.931 325.577 Z" fill="#000000" fill-rule="nonzero" fill-opacity="1" /><path clip-path="url(#clip960)" d="M154.283 298.031 Q150.672 298.031 148.843 301.596 Q147.038 305.138 147.038 312.267 Q147.038 319.374 148.843 322.938 Q150.672 326.48 154.283 326.48 Q157.917 326.48 159.723 322.938 Q161.552 319.374 161.552 312.267 Q161.552 305.138 159.723 301.596 Q157.917 298.031 154.283 298.031 M154.283 294.328 Q160.093 294.328 163.149 298.934 Q166.227 303.517 166.227 312.267 Q166.227 320.994 163.149 325.601 Q160.093 330.184 154.283 330.184 Q148.473 330.184 145.394 325.601 Q142.339 320.994 142.339 312.267 Q142.339 303.517 145.394 298.934 Q148.473 294.328 154.283 294.328 Z" fill="#000000" fill-rule="nonzero" fill-opacity="1" /><path clip-path="url(#clip960)" d="M178.923 286.962 Q181.65 287.545 183.173 289.388 Q184.716 291.231 184.716 293.94 Q184.716 298.096 181.857 300.372 Q178.998 302.648 173.732 302.648 Q171.964 302.648 170.083 302.29 Q168.221 301.952 166.227 301.256 L166.227 297.588 Q167.807 298.51 169.688 298.98 Q171.569 299.45 173.619 299.45 Q177.192 299.45 179.054 298.04 Q180.935 296.629 180.935 293.94 Q180.935 291.457 179.186 290.065 Q177.456 288.655 174.352 288.655 L171.08 288.655 L171.08 285.532 L174.503 285.532 Q177.305 285.532 178.791 284.423 Q180.277 283.294 180.277 281.188 Q180.277 279.025 178.735 277.878 Q177.211 276.712 174.352 276.712 Q172.791 276.712 171.005 277.05 Q169.218 277.389 167.074 278.103 L167.074 274.718 Q169.237 274.116 171.117 273.815 Q173.017 273.514 174.691 273.514 Q179.017 273.514 181.537 275.489 Q184.057 277.445 184.057 280.793 Q184.057 283.125 182.722 284.743 Q181.387 286.341 178.923 286.962 Z" fill="#000000" fill-rule="nonzero" fill-opacity="1" /><path clip-path="url(#clip960)" d="M16.4842 1025.92 L16.4842 995.872 L21.895 995.872 L21.895 1019.49 L35.9632 1019.49 L35.9632 996.858 L41.3741 996.858 L41.3741 1019.49 L58.5933 1019.49 L58.5933 995.299 L64.0042 995.299 L64.0042 1025.92 L16.4842 1025.92 Z" fill="#000000" fill-rule="nonzero" fill-opacity="1" /><path clip-path="url(#clip960)" d="M28.3562 955.354 L45.7028 968.245 L64.0042 954.686 L64.0042 961.592 L49.9996 971.969 L64.0042 982.345 L64.0042 989.251 L45.3526 975.406 L28.3562 988.074 L28.3562 981.167 L41.0558 971.714 L28.3562 962.261 L28.3562 955.354 Z" fill="#000000" fill-rule="nonzero" fill-opacity="1" /><path clip-path="url(#clip960)" d="M44.7161 917.924 L47.5806 917.924 L47.5806 944.851 Q53.6281 944.469 56.8109 941.222 Q59.9619 937.944 59.9619 932.119 Q59.9619 928.745 59.1344 925.594 Q58.3069 922.411 56.6518 919.292 L62.1899 919.292 Q63.5267 922.443 64.227 925.753 Q64.9272 929.064 64.9272 932.469 Q64.9272 940.999 59.9619 945.996 Q54.9967 950.962 46.5303 950.962 Q37.7774 950.962 32.6531 946.251 Q27.4968 941.509 27.4968 933.488 Q27.4968 926.295 32.1438 922.125 Q36.7589 917.924 44.7161 917.924 M42.9973 923.78 Q38.1912 923.844 35.3266 926.486 Q32.4621 929.095 32.4621 933.424 Q32.4621 938.326 35.2312 941.286 Q38.0002 944.214 43.0292 944.66 L42.9973 923.78 Z" fill="#000000" fill-rule="nonzero" fill-opacity="1" /><path clip-path="url(#clip960)" d="M29.7248 882.658 L35.1993 882.658 Q33.8307 885.14 33.1623 887.655 Q32.4621 890.137 32.4621 892.684 Q32.4621 898.381 36.0905 901.532 Q39.6872 904.683 46.212 904.683 Q52.7369 904.683 56.3653 901.532 Q59.9619 898.381 59.9619 892.684 Q59.9619 890.137 59.2935 887.655 Q58.5933 885.14 57.2247 882.658 L62.6355 882.658 Q63.7814 885.108 64.3543 887.75 Q64.9272 890.36 64.9272 893.32 Q64.9272 901.373 59.8664 906.115 Q54.8057 910.858 46.212 910.858 Q37.491 910.858 32.4939 906.083 Q27.4968 901.277 27.4968 892.938 Q27.4968 890.233 28.0697 887.655 Q28.6108 885.077 29.7248 882.658 Z" fill="#000000" fill-rule="nonzero" fill-opacity="1" /><path clip-path="url(#clip960)" d="M49.9359 873.077 L28.3562 873.077 L28.3562 867.221 L49.7131 867.221 Q54.7739 867.221 57.3202 865.247 Q59.8346 863.274 59.8346 859.327 Q59.8346 854.585 56.8109 851.848 Q53.7872 849.079 48.5673 849.079 L28.3562 849.079 L28.3562 843.222 L64.0042 843.222 L64.0042 849.079 L58.5296 849.079 Q61.7762 851.211 63.3676 854.044 Q64.9272 856.845 64.9272 860.569 Q64.9272 866.712 61.1078 869.894 Q57.2883 873.077 49.9359 873.077 M27.4968 858.341 L27.4968 858.341 Z" fill="#000000" fill-rule="nonzero" fill-opacity="1" /><path clip-path="url(#clip960)" d="M18.2347 825.366 L28.3562 825.366 L28.3562 813.303 L32.9077 813.303 L32.9077 825.366 L52.2594 825.366 Q56.6199 825.366 57.8613 824.189 Q59.1026 822.979 59.1026 819.319 L59.1026 813.303 L64.0042 813.303 L64.0042 819.319 Q64.0042 826.098 61.4897 828.676 Q58.9434 831.255 52.2594 831.255 L32.9077 831.255 L32.9077 835.551 L28.3562 835.551 L28.3562 831.255 L18.2347 831.255 L18.2347 825.366 Z" fill="#000000" fill-rule="nonzero" fill-opacity="1" /><path clip-path="url(#clip960)" d="M28.3562 805.601 L28.3562 799.744 L64.0042 799.744 L64.0042 805.601 L28.3562 805.601 M14.479 805.601 L14.479 799.744 L21.895 799.744 L21.895 805.601 L14.479 805.601 Z" fill="#000000" fill-rule="nonzero" fill-opacity="1" /><path clip-path="url(#clip960)" d="M32.4621 773.677 Q32.4621 778.387 36.1542 781.125 Q39.8145 783.862 46.212 783.862 Q52.6095 783.862 56.3017 781.156 Q59.9619 778.419 59.9619 773.677 Q59.9619 768.998 56.2698 766.261 Q52.5777 763.523 46.212 763.523 Q39.8781 763.523 36.186 766.261 Q32.4621 768.998 32.4621 773.677 M27.4968 773.677 Q27.4968 766.038 32.4621 761.677 Q37.4273 757.317 46.212 757.317 Q54.9649 757.317 59.9619 761.677 Q64.9272 766.038 64.9272 773.677 Q64.9272 781.347 59.9619 785.708 Q54.9649 790.037 46.212 790.037 Q37.4273 790.037 32.4621 785.708 Q27.4968 781.347 27.4968 773.677 Z" fill="#000000" fill-rule="nonzero" fill-opacity="1" /><path clip-path="url(#clip960)" d="M42.4881 717.977 L64.0042 717.977 L64.0042 723.833 L42.679 723.833 Q37.6183 723.833 35.1038 725.807 Q32.5894 727.78 32.5894 731.727 Q32.5894 736.469 35.6131 739.206 Q38.6368 741.944 43.8567 741.944 L64.0042 741.944 L64.0042 747.832 L28.3562 747.832 L28.3562 741.944 L33.8944 741.944 Q30.6797 739.843 29.0883 737.01 Q27.4968 734.146 27.4968 730.422 Q27.4968 724.279 31.3163 721.128 Q35.1038 717.977 42.4881 717.977 Z" fill="#000000" fill-rule="nonzero" fill-opacity="1" /><path clip-path="url(#clip960)" d="M18.2347 679.783 L28.3562 679.783 L28.3562 667.72 L32.9077 667.72 L32.9077 679.783 L52.2594 679.783 Q56.6199 679.783 57.8613 678.605 Q59.1026 677.395 59.1026 673.735 L59.1026 667.72 L64.0042 667.72 L64.0042 673.735 Q64.0042 680.515 61.4897 683.093 Q58.9434 685.671 52.2594 685.671 L32.9077 685.671 L32.9077 689.968 L28.3562 689.968 L28.3562 685.671 L18.2347 685.671 L18.2347 679.783 Z" fill="#000000" fill-rule="nonzero" fill-opacity="1" /><path clip-path="url(#clip960)" d="M28.3562 660.017 L28.3562 654.161 L64.0042 654.161 L64.0042 660.017 L28.3562 660.017 M14.479 660.017 L14.479 654.161 L21.895 654.161 L21.895 660.017 L14.479 660.017 Z" fill="#000000" fill-rule="nonzero" fill-opacity="1" /><path clip-path="url(#clip960)" d="M35.1993 614.152 Q31.2526 611.956 29.3747 608.9 Q27.4968 605.845 27.4968 601.707 Q27.4968 596.137 31.4117 593.113 Q35.2948 590.09 42.4881 590.09 L64.0042 590.09 L64.0042 595.978 L42.679 595.978 Q37.5546 595.978 35.072 597.792 Q32.5894 599.607 32.5894 603.33 Q32.5894 607.882 35.6131 610.524 Q38.6368 613.165 43.8567 613.165 L64.0042 613.165 L64.0042 619.054 L42.679 619.054 Q37.5228 619.054 35.072 620.868 Q32.5894 622.682 32.5894 626.47 Q32.5894 630.958 35.6449 633.599 Q38.6686 636.241 43.8567 636.241 L64.0042 636.241 L64.0042 642.129 L28.3562 642.129 L28.3562 636.241 L33.8944 636.241 Q30.616 634.236 29.0564 631.435 Q27.4968 628.634 27.4968 624.783 Q27.4968 620.9 29.4702 618.194 Q31.4436 615.457 35.1993 614.152 Z" fill="#000000" fill-rule="nonzero" fill-opacity="1" /><path clip-path="url(#clip960)" d="M44.7161 547.917 L47.5806 547.917 L47.5806 574.844 Q53.6281 574.462 56.8109 571.215 Q59.9619 567.937 59.9619 562.112 Q59.9619 558.739 59.1344 555.588 Q58.3069 552.405 56.6518 549.286 L62.1899 549.286 Q63.5267 552.437 64.227 555.747 Q64.9272 559.057 64.9272 562.463 Q64.9272 570.993 59.9619 575.99 Q54.9967 580.955 46.5303 580.955 Q37.7774 580.955 32.6531 576.244 Q27.4968 571.502 27.4968 563.481 Q27.4968 556.288 32.1438 552.118 Q36.7589 547.917 44.7161 547.917 M42.9973 553.773 Q38.1912 553.837 35.3266 556.479 Q32.4621 559.089 32.4621 563.417 Q32.4621 568.319 35.2312 571.279 Q38.0002 574.207 43.0292 574.653 L42.9973 553.773 Z" fill="#000000" fill-rule="nonzero" fill-opacity="1" /><path clip-path="url(#clip960)" d="M14.5426 503.516 Q21.8632 507.781 29.0246 509.85 Q36.186 511.919 43.5384 511.919 Q50.8908 511.919 58.1159 509.85 Q65.3091 507.749 72.5979 503.516 L72.5979 508.609 Q65.1182 513.383 57.8931 515.77 Q50.668 518.125 43.5384 518.125 Q36.4406 518.125 29.2474 515.77 Q22.0542 513.415 14.5426 508.609 L14.5426 503.516 Z" fill="#000000" fill-rule="nonzero" fill-opacity="1" /><path clip-path="url(#clip960)" d="M29.4065 469.428 L34.9447 469.428 Q33.6716 471.91 33.035 474.584 Q32.3984 477.258 32.3984 480.122 Q32.3984 484.483 33.7352 486.679 Q35.072 488.843 37.7456 488.843 Q39.7826 488.843 40.9603 487.284 Q42.1061 485.724 43.1565 481.013 L43.6021 479.008 Q44.9389 472.77 47.3897 470.16 Q49.8086 467.518 54.1691 467.518 Q59.1344 467.518 62.0308 471.465 Q64.9272 475.38 64.9272 482.255 Q64.9272 485.119 64.3543 488.238 Q63.8132 491.326 62.6992 494.763 L56.6518 494.763 Q58.3387 491.517 59.198 488.366 Q60.0256 485.215 60.0256 482.127 Q60.0256 477.99 58.6251 475.762 Q57.1929 473.534 54.6147 473.534 Q52.2276 473.534 50.9545 475.157 Q49.6813 476.748 48.5037 482.191 L48.0262 484.228 Q46.8804 489.671 44.5251 492.09 Q42.138 494.509 38.0002 494.509 Q32.9713 494.509 30.2341 490.944 Q27.4968 487.379 27.4968 480.822 Q27.4968 477.576 27.9743 474.711 Q28.4517 471.847 29.4065 469.428 Z" fill="#000000" fill-rule="nonzero" fill-opacity="1" /><path clip-path="url(#clip960)" d="M14.5426 459.115 L14.5426 454.023 Q22.0542 449.249 29.2474 446.893 Q36.4406 444.506 43.5384 444.506 Q50.668 444.506 57.8931 446.893 Q65.1182 449.249 72.5979 454.023 L72.5979 459.115 Q65.3091 454.882 58.1159 452.813 Q50.8908 450.713 43.5384 450.713 Q36.186 450.713 29.0246 452.813 Q21.8632 454.882 14.5426 459.115 Z" fill="#000000" fill-rule="nonzero" fill-opacity="1" /><polyline clip-path="url(#clip962)" style="stroke:#009af9; stroke-linecap:round; stroke-linejoin:round; stroke-width:8; stroke-opacity:1; fill:none" points="281.056,68.3268 568.393,268.374 1143.07,553.971 1717.74,610.847 2292.42,667.853 "/>
<circle clip-path="url(#clip962)" cx="281.056" cy="68.3268" r="10.8" fill="#009af9" fill-rule="evenodd" fill-opacity="1" stroke="#000000" stroke-opacity="1" stroke-width="3.2"/>
<circle clip-path="url(#clip962)" cx="568.393" cy="268.374" r="10.8" fill="#009af9" fill-rule="evenodd" fill-opacity="1" stroke="#000000" stroke-opacity="1" stroke-width="3.2"/>
<circle clip-path="url(#clip962)" cx="1143.07" cy="553.971" r="10.8" fill="#009af9" fill-rule="evenodd" fill-opacity="1" stroke="#000000" stroke-opacity="1" stroke-width="3.2"/>
<circle clip-path="url(#clip962)" cx="1717.74" cy="610.847" r="10.8" fill="#009af9" fill-rule="evenodd" fill-opacity="1" stroke="#000000" stroke-opacity="1" stroke-width="3.2"/>
<circle clip-path="url(#clip962)" cx="2292.42" cy="667.853" r="10.8" fill="#009af9" fill-rule="evenodd" fill-opacity="1" stroke="#000000" stroke-opacity="1" stroke-width="3.2"/>
<polyline clip-path="url(#clip962)" style="stroke:#e26f46; stroke-linecap:round; stroke-linejoin:round; stroke-width:8; stroke-opacity:1; fill:none" points="281.056,536.587 568.393,727.509 1143.07,934.056 1717.74,974.961 2292.42,999.149 "/>
<circle clip-path="url(#clip962)" cx="281.056" cy="536.587" r="10.8" fill="#e26f46" fill-rule="evenodd" fill-opacity="1" stroke="#000000" stroke-opacity="1" stroke-width="3.2"/>
<circle clip-path="url(#clip962)" cx="568.393" cy="727.509" r="10.8" fill="#e26f46" fill-rule="evenodd" fill-opacity="1" stroke="#000000" stroke-opacity="1" stroke-width="3.2"/>
<circle clip-path="url(#clip962)" cx="1143.07" cy="934.056" r="10.8" fill="#e26f46" fill-rule="evenodd" fill-opacity="1" stroke="#000000" stroke-opacity="1" stroke-width="3.2"/>
<circle clip-path="url(#clip962)" cx="1717.74" cy="974.961" r="10.8" fill="#e26f46" fill-rule="evenodd" fill-opacity="1" stroke="#000000" stroke-opacity="1" stroke-width="3.2"/>
<circle clip-path="url(#clip962)" cx="2292.42" cy="999.149" r="10.8" fill="#e26f46" fill-rule="evenodd" fill-opacity="1" stroke="#000000" stroke-opacity="1" stroke-width="3.2"/>
<polyline clip-path="url(#clip962)" style="stroke:#3da44d; stroke-linecap:round; stroke-linejoin:round; stroke-width:8; stroke-opacity:1; fill:none" points="281.056,225.02 568.393,327.508 1143.07,402.523 1717.74,415.853 2292.42,461.718 "/>
<circle clip-path="url(#clip962)" cx="281.056" cy="225.02" r="10.8" fill="#3da44d" fill-rule="evenodd" fill-opacity="1" stroke="#000000" stroke-opacity="1" stroke-width="3.2"/>
<circle clip-path="url(#clip962)" cx="568.393" cy="327.508" r="10.8" fill="#3da44d" fill-rule="evenodd" fill-opacity="1" stroke="#000000" stroke-opacity="1" stroke-width="3.2"/>
<circle clip-path="url(#clip962)" cx="1143.07" cy="402.523" r="10.8" fill="#3da44d" fill-rule="evenodd" fill-opacity="1" stroke="#000000" stroke-opacity="1" stroke-width="3.2"/>
<circle clip-path="url(#clip962)" cx="1717.74" cy="415.853" r="10.8" fill="#3da44d" fill-rule="evenodd" fill-opacity="1" stroke="#000000" stroke-opacity="1" stroke-width="3.2"/>
<circle clip-path="url(#clip962)" cx="2292.42" cy="461.718" r="10.8" fill="#3da44d" fill-rule="evenodd" fill-opacity="1" stroke="#000000" stroke-opacity="1" stroke-width="3.2"/>
<polyline clip-path="url(#clip962)" style="stroke:#c271d2; stroke-linecap:round; stroke-linejoin:round; stroke-width:8; stroke-opacity:1; fill:none" points="281.056,446.804 568.393,612.418 1143.07,745.328 1717.74,799.911 2292.42,821.066 "/>
<circle clip-path="url(#clip962)" cx="281.056" cy="446.804" r="10.8" fill="#c271d2" fill-rule="evenodd" fill-opacity="1" stroke="#000000" stroke-opacity="1" stroke-width="3.2"/>
<circle clip-path="url(#clip962)" cx="568.393" cy="612.418" r="10.8" fill="#c271d2" fill-rule="evenodd" fill-opacity="1" stroke="#000000" stroke-opacity="1" stroke-width="3.2"/>
<circle clip-path="url(#clip962)" cx="1143.07" cy="745.328" r="10.8" fill="#c271d2" fill-rule="evenodd" fill-opacity="1" stroke="#000000" stroke-opacity="1" stroke-width="3.2"/>
<circle clip-path="url(#clip962)" cx="1717.74" cy="799.911" r="10.8" fill="#c271d2" fill-rule="evenodd" fill-opacity="1" stroke="#000000" stroke-opacity="1" stroke-width="3.2"/>
<circle clip-path="url(#clip962)" cx="2292.42" cy="821.066" r="10.8" fill="#c271d2" fill-rule="evenodd" fill-opacity="1" stroke="#000000" stroke-opacity="1" stroke-width="3.2"/>
<polyline clip-path="url(#clip962)" style="stroke:#ac8d18; stroke-linecap:round; stroke-linejoin:round; stroke-width:8; stroke-opacity:1; fill:none" points="281.056,469.89 568.393,643.117 1143.07,780.998 1717.74,836.843 2292.42,858.037 "/>
<circle clip-path="url(#clip962)" cx="281.056" cy="469.89" r="10.8" fill="#ac8d18" fill-rule="evenodd" fill-opacity="1" stroke="#000000" stroke-opacity="1" stroke-width="3.2"/>
<circle clip-path="url(#clip962)" cx="568.393" cy="643.117" r="10.8" fill="#ac8d18" fill-rule="evenodd" fill-opacity="1" stroke="#000000" stroke-opacity="1" stroke-width="3.2"/>
<circle clip-path="url(#clip962)" cx="1143.07" cy="780.998" r="10.8" fill="#ac8d18" fill-rule="evenodd" fill-opacity="1" stroke="#000000" stroke-opacity="1" stroke-width="3.2"/>
<circle clip-path="url(#clip962)" cx="1717.74" cy="836.843" r="10.8" fill="#ac8d18" fill-rule="evenodd" fill-opacity="1" stroke="#000000" stroke-opacity="1" stroke-width="3.2"/>
<circle clip-path="url(#clip962)" cx="2292.42" cy="858.037" r="10.8" fill="#ac8d18" fill-rule="evenodd" fill-opacity="1" stroke="#000000" stroke-opacity="1" stroke-width="3.2"/>
<polyline clip-path="url(#clip962)" style="stroke:#c271d2; stroke-linecap:round; stroke-linejoin:round; stroke-width:8; stroke-opacity:1; fill:none" points="281.056,1083.11 2292.42,1083.11 "/>
<polyline clip-path="url(#clip962)" style="stroke:#3da44d; stroke-linecap:round; stroke-linejoin:round; stroke-width:8; stroke-opacity:1; fill:none" points="281.056,1265.08 2292.42,1265.08 "/>
<polyline clip-path="url(#clip962)" style="stroke:#ac8d18; stroke-linecap:round; stroke-linejoin:round; stroke-width:8; stroke-opacity:1; fill:none" points="281.056,1332.39 2292.42,1332.39 "/>
<path clip-path="url(#clip960)" d="M1766.84 559.669 L2281.69 559.669 L2281.69 93.1086 L1766.84 93.1086  Z" fill="#000000" fill-rule="evenodd" fill-opacity="0"/>
<polyline clip-path="url(#clip960)" style="stroke:#000000; stroke-linecap:round; stroke-linejoin:round; stroke-width:4; stroke-opacity:0; fill:none" points="1766.84,559.669 2281.69,559.669 2281.69,93.1086 1766.84,93.1086 1766.84,559.669 "/>
<polyline clip-path="url(#clip960)" style="stroke:#009af9; stroke-linecap:round; stroke-linejoin:round; stroke-width:8; stroke-opacity:1; fill:none" points="1790.53,144.949 1932.67,144.949 "/>
<circle clip-path="url(#clip960)" cx="1861.6" cy="144.949" r="19.7411" fill="#009af9" fill-rule="evenodd" fill-opacity="1" stroke="#000000" stroke-opacity="1" stroke-width="5.85143"/>
<path clip-path="url(#clip960)" d="M1972.38 130.84 Q1967.28 130.84 1964.27 134.636 Q1961.29 138.432 1961.29 144.983 Q1961.29 151.511 1964.27 155.307 Q1967.28 159.104 1972.38 159.104 Q1977.47 159.104 1980.43 155.307 Q1983.42 151.511 1983.42 144.983 Q1983.42 138.432 1980.43 134.636 Q1977.47 130.84 1972.38 130.84 M1972.38 127.044 Q1979.64 127.044 1984 131.928 Q1988.35 136.789 1988.35 144.983 Q1988.35 153.155 1984 158.039 Q1979.64 162.9 1972.38 162.9 Q1965.08 162.9 1960.71 158.039 Q1956.36 153.178 1956.36 144.983 Q1956.36 136.789 1960.71 131.928 Q1965.08 127.044 1972.38 127.044 Z" fill="#000000" fill-rule="nonzero" fill-opacity="1" /><path clip-path="url(#clip960)" d="M1995.66 127.669 L2015.52 127.669 L2015.52 131.604 L2000.34 131.604 L2000.34 141.789 L2014.04 141.789 L2014.04 145.724 L2000.34 145.724 L2000.34 162.229 L1995.66 162.229 L1995.66 127.669 Z" fill="#000000" fill-rule="nonzero" fill-opacity="1" /><path clip-path="url(#clip960)" d="M2024.16 158.293 L2031.8 158.293 L2031.8 131.928 L2023.49 133.595 L2023.49 129.335 L2031.75 127.669 L2036.43 127.669 L2036.43 158.293 L2044.06 158.293 L2044.06 162.229 L2024.16 162.229 L2024.16 158.293 Z" fill="#000000" fill-rule="nonzero" fill-opacity="1" /><path clip-path="url(#clip960)" d="M2054.32 158.293 L2061.96 158.293 L2061.96 131.928 L2053.65 133.595 L2053.65 129.335 L2061.91 127.669 L2066.59 127.669 L2066.59 158.293 L2074.23 158.293 L2074.23 162.229 L2054.32 162.229 L2054.32 158.293 Z" fill="#000000" fill-rule="nonzero" fill-opacity="1" /><path clip-path="url(#clip960)" d="M2119.04 128.803 L2119.04 133.363 Q2116.38 132.09 2114.02 131.465 Q2111.66 130.84 2109.46 130.84 Q2105.64 130.84 2103.55 132.321 Q2101.49 133.803 2101.49 136.534 Q2101.49 138.826 2102.86 140.007 Q2104.25 141.164 2108.09 141.882 L2110.92 142.46 Q2116.15 143.456 2118.62 145.979 Q2121.12 148.479 2121.12 152.692 Q2121.12 157.715 2117.74 160.307 Q2114.39 162.9 2107.88 162.9 Q2105.43 162.9 2102.65 162.344 Q2099.9 161.789 2096.93 160.701 L2096.93 155.886 Q2099.78 157.483 2102.51 158.293 Q2105.24 159.104 2107.88 159.104 Q2111.89 159.104 2114.06 157.53 Q2116.24 155.956 2116.24 153.039 Q2116.24 150.493 2114.67 149.057 Q2113.12 147.622 2109.55 146.905 L2106.7 146.349 Q2101.47 145.307 2099.13 143.085 Q2096.8 140.863 2096.8 136.905 Q2096.8 132.321 2100.01 129.682 Q2103.25 127.044 2108.93 127.044 Q2111.36 127.044 2113.88 127.483 Q2116.4 127.923 2119.04 128.803 Z" fill="#000000" fill-rule="nonzero" fill-opacity="1" /><path clip-path="url(#clip960)" d="M2128.23 136.303 L2132.49 136.303 L2132.49 162.229 L2128.23 162.229 L2128.23 136.303 M2128.23 126.21 L2132.49 126.21 L2132.49 131.604 L2128.23 131.604 L2128.23 126.21 Z" fill="#000000" fill-rule="nonzero" fill-opacity="1" /><path clip-path="url(#clip960)" d="M2161.59 141.28 Q2163.18 138.409 2165.41 137.044 Q2167.63 135.678 2170.64 135.678 Q2174.69 135.678 2176.89 138.525 Q2179.09 141.349 2179.09 146.581 L2179.09 162.229 L2174.8 162.229 L2174.8 146.719 Q2174.8 142.993 2173.49 141.187 Q2172.17 139.382 2169.46 139.382 Q2166.15 139.382 2164.23 141.581 Q2162.3 143.78 2162.3 147.576 L2162.3 162.229 L2158.02 162.229 L2158.02 146.719 Q2158.02 142.969 2156.7 141.187 Q2155.38 139.382 2152.63 139.382 Q2149.36 139.382 2147.44 141.604 Q2145.52 143.803 2145.52 147.576 L2145.52 162.229 L2141.24 162.229 L2141.24 136.303 L2145.52 136.303 L2145.52 140.331 Q2146.98 137.946 2149.02 136.812 Q2151.05 135.678 2153.86 135.678 Q2156.68 135.678 2158.65 137.113 Q2160.64 138.548 2161.59 141.28 Z" fill="#000000" fill-rule="nonzero" fill-opacity="1" /><path clip-path="url(#clip960)" d="M2187.58 136.303 L2191.84 136.303 L2191.84 162.229 L2187.58 162.229 L2187.58 136.303 M2187.58 126.21 L2191.84 126.21 L2191.84 131.604 L2187.58 131.604 L2187.58 126.21 Z" fill="#000000" fill-rule="nonzero" fill-opacity="1" /><path clip-path="url(#clip960)" d="M2200.75 126.21 L2205.01 126.21 L2205.01 162.229 L2200.75 162.229 L2200.75 126.21 Z" fill="#000000" fill-rule="nonzero" fill-opacity="1" /><path clip-path="url(#clip960)" d="M2225.71 149.196 Q2220.55 149.196 2218.55 150.377 Q2216.56 151.557 2216.56 154.405 Q2216.56 156.673 2218.05 158.016 Q2219.55 159.335 2222.12 159.335 Q2225.66 159.335 2227.79 156.835 Q2229.94 154.312 2229.94 150.145 L2229.94 149.196 L2225.71 149.196 M2234.2 147.437 L2234.2 162.229 L2229.94 162.229 L2229.94 158.293 Q2228.48 160.655 2226.31 161.789 Q2224.13 162.9 2220.98 162.9 Q2217 162.9 2214.64 160.678 Q2212.3 158.432 2212.3 154.682 Q2212.3 150.307 2215.22 148.085 Q2218.16 145.863 2223.97 145.863 L2229.94 145.863 L2229.94 145.446 Q2229.94 142.507 2228 140.909 Q2226.08 139.289 2222.58 139.289 Q2220.36 139.289 2218.25 139.821 Q2216.15 140.354 2214.2 141.419 L2214.2 137.483 Q2216.54 136.581 2218.74 136.141 Q2220.94 135.678 2223.02 135.678 Q2228.65 135.678 2231.42 138.594 Q2234.2 141.511 2234.2 147.437 Z" fill="#000000" fill-rule="nonzero" fill-opacity="1" /><path clip-path="url(#clip960)" d="M2258 140.284 Q2257.28 139.868 2256.42 139.682 Q2255.59 139.474 2254.57 139.474 Q2250.96 139.474 2249.02 141.835 Q2247.1 144.173 2247.1 148.571 L2247.1 162.229 L2242.81 162.229 L2242.81 136.303 L2247.1 136.303 L2247.1 140.331 Q2248.44 137.969 2250.59 136.835 Q2252.74 135.678 2255.82 135.678 Q2256.26 135.678 2256.79 135.747 Q2257.33 135.794 2257.98 135.909 L2258 140.284 Z" fill="#000000" fill-rule="nonzero" fill-opacity="1" /><polyline clip-path="url(#clip960)" style="stroke:#e26f46; stroke-linecap:round; stroke-linejoin:round; stroke-width:8; stroke-opacity:1; fill:none" points="1790.53,196.789 1932.67,196.789 "/>
<circle clip-path="url(#clip960)" cx="1861.6" cy="196.789" r="19.7411" fill="#e26f46" fill-rule="evenodd" fill-opacity="1" stroke="#000000" stroke-opacity="1" stroke-width="5.85143"/>
<path clip-path="url(#clip960)" d="M1972.38 182.68 Q1967.28 182.68 1964.27 186.476 Q1961.29 190.272 1961.29 196.823 Q1961.29 203.351 1964.27 207.147 Q1967.28 210.944 1972.38 210.944 Q1977.47 210.944 1980.43 207.147 Q1983.42 203.351 1983.42 196.823 Q1983.42 190.272 1980.43 186.476 Q1977.47 182.68 1972.38 182.68 M1972.38 178.884 Q1979.64 178.884 1984 183.768 Q1988.35 188.629 1988.35 196.823 Q1988.35 204.995 1984 209.879 Q1979.64 214.74 1972.38 214.74 Q1965.08 214.74 1960.71 209.879 Q1956.36 205.018 1956.36 196.823 Q1956.36 188.629 1960.71 183.768 Q1965.08 178.884 1972.38 178.884 Z" fill="#000000" fill-rule="nonzero" fill-opacity="1" /><path clip-path="url(#clip960)" d="M1995.66 179.509 L2015.52 179.509 L2015.52 183.444 L2000.34 183.444 L2000.34 193.629 L2014.04 193.629 L2014.04 197.564 L2000.34 197.564 L2000.34 214.069 L1995.66 214.069 L1995.66 179.509 Z" fill="#000000" fill-rule="nonzero" fill-opacity="1" /><path clip-path="url(#clip960)" d="M2024.16 210.133 L2031.8 210.133 L2031.8 183.768 L2023.49 185.435 L2023.49 181.175 L2031.75 179.509 L2036.43 179.509 L2036.43 210.133 L2044.06 210.133 L2044.06 214.069 L2024.16 214.069 L2024.16 210.133 Z" fill="#000000" fill-rule="nonzero" fill-opacity="1" /><path clip-path="url(#clip960)" d="M2054.32 210.133 L2061.96 210.133 L2061.96 183.768 L2053.65 185.435 L2053.65 181.175 L2061.91 179.509 L2066.59 179.509 L2066.59 210.133 L2074.23 210.133 L2074.23 214.069 L2054.32 214.069 L2054.32 210.133 Z" fill="#000000" fill-rule="nonzero" fill-opacity="1" /><path clip-path="url(#clip960)" d="M2103 197.564 L2103 210.226 L2110.5 210.226 Q2114.27 210.226 2116.08 208.675 Q2117.91 207.101 2117.91 203.883 Q2117.91 200.643 2116.08 199.115 Q2114.27 197.564 2110.5 197.564 L2103 197.564 M2103 183.351 L2103 193.768 L2109.92 193.768 Q2113.35 193.768 2115.01 192.495 Q2116.7 191.198 2116.7 188.559 Q2116.7 185.944 2115.01 184.647 Q2113.35 183.351 2109.92 183.351 L2103 183.351 M2098.32 179.509 L2110.27 179.509 Q2115.62 179.509 2118.51 181.731 Q2121.4 183.953 2121.4 188.05 Q2121.4 191.222 2119.92 193.097 Q2118.44 194.971 2115.57 195.434 Q2119.02 196.175 2120.92 198.536 Q2122.84 200.874 2122.84 204.393 Q2122.84 209.022 2119.69 211.545 Q2116.54 214.069 2110.73 214.069 L2098.32 214.069 L2098.32 179.509 Z" fill="#000000" fill-rule="nonzero" fill-opacity="1" /><path clip-path="url(#clip960)" d="M2152.84 200.041 L2152.84 202.124 L2133.25 202.124 Q2133.53 206.522 2135.89 208.837 Q2138.28 211.129 2142.51 211.129 Q2144.97 211.129 2147.26 210.527 Q2149.57 209.925 2151.84 208.721 L2151.84 212.749 Q2149.55 213.721 2147.14 214.231 Q2144.74 214.74 2142.26 214.74 Q2136.05 214.74 2132.42 211.129 Q2128.81 207.518 2128.81 201.36 Q2128.81 194.995 2132.24 191.268 Q2135.68 187.518 2141.52 187.518 Q2146.75 187.518 2149.78 190.897 Q2152.84 194.254 2152.84 200.041 M2148.58 198.791 Q2148.53 195.296 2146.61 193.212 Q2144.71 191.129 2141.56 191.129 Q2138 191.129 2135.85 193.143 Q2133.72 195.157 2133.39 198.814 L2148.58 198.791 Z" fill="#000000" fill-rule="nonzero" fill-opacity="1" /><path clip-path="url(#clip960)" d="M2176.36 188.907 L2176.36 192.934 Q2174.55 192.009 2172.61 191.546 Q2170.66 191.083 2168.58 191.083 Q2165.41 191.083 2163.81 192.055 Q2162.24 193.027 2162.24 194.971 Q2162.24 196.453 2163.37 197.309 Q2164.5 198.143 2167.93 198.907 L2169.39 199.231 Q2173.92 200.203 2175.82 201.985 Q2177.74 203.745 2177.74 206.916 Q2177.74 210.527 2174.87 212.633 Q2172.03 214.74 2167.03 214.74 Q2164.94 214.74 2162.67 214.323 Q2160.43 213.93 2157.93 213.12 L2157.93 208.721 Q2160.29 209.948 2162.58 210.573 Q2164.87 211.175 2167.12 211.175 Q2170.13 211.175 2171.75 210.157 Q2173.37 209.115 2173.37 207.24 Q2173.37 205.504 2172.19 204.578 Q2171.03 203.652 2167.07 202.796 L2165.59 202.448 Q2161.63 201.615 2159.87 199.902 Q2158.11 198.166 2158.11 195.157 Q2158.11 191.499 2160.71 189.509 Q2163.3 187.518 2168.07 187.518 Q2170.43 187.518 2172.51 187.865 Q2174.6 188.212 2176.36 188.907 Z" fill="#000000" fill-rule="nonzero" fill-opacity="1" /><path clip-path="url(#clip960)" d="M2188.74 180.782 L2188.74 188.143 L2197.51 188.143 L2197.51 191.453 L2188.74 191.453 L2188.74 205.527 Q2188.74 208.698 2189.6 209.601 Q2190.48 210.504 2193.14 210.504 L2197.51 210.504 L2197.51 214.069 L2193.14 214.069 Q2188.21 214.069 2186.33 212.24 Q2184.46 210.388 2184.46 205.527 L2184.46 191.453 L2181.33 191.453 L2181.33 188.143 L2184.46 188.143 L2184.46 180.782 L2188.74 180.782 Z" fill="#000000" fill-rule="nonzero" fill-opacity="1" /><polyline clip-path="url(#clip960)" style="stroke:#3da44d; stroke-linecap:round; stroke-linejoin:round; stroke-width:8; stroke-opacity:1; fill:none" points="1790.53,248.629 1932.67,248.629 "/>
<circle clip-path="url(#clip960)" cx="1861.6" cy="248.629" r="19.7411" fill="#3da44d" fill-rule="evenodd" fill-opacity="1" stroke="#000000" stroke-opacity="1" stroke-width="5.85143"/>
<path clip-path="url(#clip960)" d="M1956.36 239.983 L1960.87 239.983 L1968.97 261.742 L1977.07 239.983 L1981.59 239.983 L1971.87 265.909 L1966.08 265.909 L1956.36 239.983 Z" fill="#000000" fill-rule="nonzero" fill-opacity="1" /><path clip-path="url(#clip960)" d="M1998.07 234.427 Q1994.46 234.427 1992.63 237.992 Q1990.82 241.534 1990.82 248.663 Q1990.82 255.77 1992.63 259.335 Q1994.46 262.876 1998.07 262.876 Q2001.7 262.876 2003.51 259.335 Q2005.34 255.77 2005.34 248.663 Q2005.34 241.534 2003.51 237.992 Q2001.7 234.427 1998.07 234.427 M1998.07 230.724 Q2003.88 230.724 2006.94 235.33 Q2010.01 239.913 2010.01 248.663 Q2010.01 257.39 2006.94 261.997 Q2003.88 266.58 1998.07 266.58 Q1992.26 266.58 1989.18 261.997 Q1986.13 257.39 1986.13 248.663 Q1986.13 239.913 1989.18 235.33 Q1992.26 230.724 1998.07 230.724 Z" fill="#000000" fill-rule="nonzero" fill-opacity="1" /><path clip-path="url(#clip960)" d="M2018.23 260.029 L2023.12 260.029 L2023.12 265.909 L2018.23 265.909 L2018.23 260.029 Z" fill="#000000" fill-rule="nonzero" fill-opacity="1" /><path clip-path="url(#clip960)" d="M2047.47 247.274 Q2050.82 247.992 2052.7 250.261 Q2054.6 252.529 2054.6 255.862 Q2054.6 260.978 2051.08 263.779 Q2047.56 266.58 2041.08 266.58 Q2038.9 266.58 2036.59 266.14 Q2034.3 265.723 2031.84 264.867 L2031.84 260.353 Q2033.79 261.487 2036.1 262.066 Q2038.42 262.645 2040.94 262.645 Q2045.34 262.645 2047.63 260.909 Q2049.94 259.173 2049.94 255.862 Q2049.94 252.807 2047.79 251.094 Q2045.66 249.358 2041.84 249.358 L2037.81 249.358 L2037.81 245.515 L2042.03 245.515 Q2045.48 245.515 2047.31 244.149 Q2049.13 242.761 2049.13 240.168 Q2049.13 237.506 2047.24 236.094 Q2045.36 234.659 2041.84 234.659 Q2039.92 234.659 2037.72 235.075 Q2035.52 235.492 2032.88 236.372 L2032.88 232.205 Q2035.55 231.464 2037.86 231.094 Q2040.2 230.724 2042.26 230.724 Q2047.58 230.724 2050.68 233.154 Q2053.79 235.562 2053.79 239.682 Q2053.79 242.552 2052.14 244.543 Q2050.5 246.511 2047.47 247.274 Z" fill="#000000" fill-rule="nonzero" fill-opacity="1" /><path clip-path="url(#clip960)" d="M2063.46 260.029 L2068.35 260.029 L2068.35 265.909 L2063.46 265.909 L2063.46 260.029 Z" fill="#000000" fill-rule="nonzero" fill-opacity="1" /><path clip-path="url(#clip960)" d="M2082.56 261.973 L2098.88 261.973 L2098.88 265.909 L2076.93 265.909 L2076.93 261.973 Q2079.6 259.219 2084.18 254.589 Q2088.79 249.936 2089.97 248.594 Q2092.21 246.071 2093.09 244.335 Q2093.99 242.575 2093.99 240.886 Q2093.99 238.131 2092.05 236.395 Q2090.13 234.659 2087.03 234.659 Q2084.83 234.659 2082.37 235.423 Q2079.94 236.187 2077.17 237.737 L2077.17 233.015 Q2079.99 231.881 2082.44 231.302 Q2084.9 230.724 2086.93 230.724 Q2092.3 230.724 2095.5 233.409 Q2098.69 236.094 2098.69 240.585 Q2098.69 242.714 2097.88 244.636 Q2097.1 246.534 2094.99 249.126 Q2094.41 249.798 2091.31 253.015 Q2088.21 256.21 2082.56 261.973 Z" fill="#000000" fill-rule="nonzero" fill-opacity="1" /><polyline clip-path="url(#clip960)" style="stroke:#c271d2; stroke-linecap:round; stroke-linejoin:round; stroke-width:8; stroke-opacity:1; fill:none" points="1790.53,300.469 1932.67,300.469 "/>
<circle clip-path="url(#clip960)" cx="1861.6" cy="300.469" r="19.7411" fill="#c271d2" fill-rule="evenodd" fill-opacity="1" stroke="#000000" stroke-opacity="1" stroke-width="5.85143"/>
<path clip-path="url(#clip960)" d="M1956.36 291.823 L1960.87 291.823 L1968.97 313.582 L1977.07 291.823 L1981.59 291.823 L1971.87 317.749 L1966.08 317.749 L1956.36 291.823 Z" fill="#000000" fill-rule="nonzero" fill-opacity="1" /><path clip-path="url(#clip960)" d="M1998.07 286.267 Q1994.46 286.267 1992.63 289.832 Q1990.82 293.374 1990.82 300.503 Q1990.82 307.61 1992.63 311.175 Q1994.46 314.716 1998.07 314.716 Q2001.7 314.716 2003.51 311.175 Q2005.34 307.61 2005.34 300.503 Q2005.34 293.374 2003.51 289.832 Q2001.7 286.267 1998.07 286.267 M1998.07 282.564 Q2003.88 282.564 2006.94 287.17 Q2010.01 291.753 2010.01 300.503 Q2010.01 309.23 2006.94 313.837 Q2003.88 318.42 1998.07 318.42 Q1992.26 318.42 1989.18 313.837 Q1986.13 309.23 1986.13 300.503 Q1986.13 291.753 1989.18 287.17 Q1992.26 282.564 1998.07 282.564 Z" fill="#000000" fill-rule="nonzero" fill-opacity="1" /><path clip-path="url(#clip960)" d="M2018.23 311.869 L2023.12 311.869 L2023.12 317.749 L2018.23 317.749 L2018.23 311.869 Z" fill="#000000" fill-rule="nonzero" fill-opacity="1" /><path clip-path="url(#clip960)" d="M2047.47 299.114 Q2050.82 299.832 2052.7 302.101 Q2054.6 304.369 2054.6 307.702 Q2054.6 312.818 2051.08 315.619 Q2047.56 318.42 2041.08 318.42 Q2038.9 318.42 2036.59 317.98 Q2034.3 317.563 2031.84 316.707 L2031.84 312.193 Q2033.79 313.327 2036.1 313.906 Q2038.42 314.485 2040.94 314.485 Q2045.34 314.485 2047.63 312.749 Q2049.94 311.013 2049.94 307.702 Q2049.94 304.647 2047.79 302.934 Q2045.66 301.198 2041.84 301.198 L2037.81 301.198 L2037.81 297.355 L2042.03 297.355 Q2045.48 297.355 2047.31 295.989 Q2049.13 294.601 2049.13 292.008 Q2049.13 289.346 2047.24 287.934 Q2045.36 286.499 2041.84 286.499 Q2039.92 286.499 2037.72 286.915 Q2035.52 287.332 2032.88 288.212 L2032.88 284.045 Q2035.55 283.304 2037.86 282.934 Q2040.2 282.564 2042.26 282.564 Q2047.58 282.564 2050.68 284.994 Q2053.79 287.402 2053.79 291.522 Q2053.79 294.392 2052.14 296.383 Q2050.5 298.351 2047.47 299.114 Z" fill="#000000" fill-rule="nonzero" fill-opacity="1" /><path clip-path="url(#clip960)" d="M2063.46 311.869 L2068.35 311.869 L2068.35 317.749 L2063.46 317.749 L2063.46 311.869 Z" fill="#000000" fill-rule="nonzero" fill-opacity="1" /><path clip-path="url(#clip960)" d="M2092.7 299.114 Q2096.05 299.832 2097.93 302.101 Q2099.83 304.369 2099.83 307.702 Q2099.83 312.818 2096.31 315.619 Q2092.79 318.42 2086.31 318.42 Q2084.13 318.42 2081.82 317.98 Q2079.53 317.563 2077.07 316.707 L2077.07 312.193 Q2079.02 313.327 2081.33 313.906 Q2083.65 314.485 2086.17 314.485 Q2090.57 314.485 2092.86 312.749 Q2095.18 311.013 2095.18 307.702 Q2095.18 304.647 2093.02 302.934 Q2090.89 301.198 2087.07 301.198 L2083.05 301.198 L2083.05 297.355 L2087.26 297.355 Q2090.71 297.355 2092.54 295.989 Q2094.37 294.601 2094.37 292.008 Q2094.37 289.346 2092.47 287.934 Q2090.59 286.499 2087.07 286.499 Q2085.15 286.499 2082.95 286.915 Q2080.75 287.332 2078.12 288.212 L2078.12 284.045 Q2080.78 283.304 2083.09 282.934 Q2085.43 282.564 2087.49 282.564 Q2092.81 282.564 2095.92 284.994 Q2099.02 287.402 2099.02 291.522 Q2099.02 294.392 2097.37 296.383 Q2095.73 298.351 2092.7 299.114 Z" fill="#000000" fill-rule="nonzero" fill-opacity="1" /><polyline clip-path="url(#clip960)" style="stroke:#ac8d18; stroke-linecap:round; stroke-linejoin:round; stroke-width:8; stroke-opacity:1; fill:none" points="1790.53,352.309 1932.67,352.309 "/>
<circle clip-path="url(#clip960)" cx="1861.6" cy="352.309" r="19.7411" fill="#ac8d18" fill-rule="evenodd" fill-opacity="1" stroke="#000000" stroke-opacity="1" stroke-width="5.85143"/>
<path clip-path="url(#clip960)" d="M1956.36 343.663 L1960.87 343.663 L1968.97 365.422 L1977.07 343.663 L1981.59 343.663 L1971.87 369.589 L1966.08 369.589 L1956.36 343.663 Z" fill="#000000" fill-rule="nonzero" fill-opacity="1" /><path clip-path="url(#clip960)" d="M1998.07 338.107 Q1994.46 338.107 1992.63 341.672 Q1990.82 345.214 1990.82 352.343 Q1990.82 359.45 1992.63 363.015 Q1994.46 366.556 1998.07 366.556 Q2001.7 366.556 2003.51 363.015 Q2005.34 359.45 2005.34 352.343 Q2005.34 345.214 2003.51 341.672 Q2001.7 338.107 1998.07 338.107 M1998.07 334.404 Q2003.88 334.404 2006.94 339.01 Q2010.01 343.593 2010.01 352.343 Q2010.01 361.07 2006.94 365.677 Q2003.88 370.26 1998.07 370.26 Q1992.26 370.26 1989.18 365.677 Q1986.13 361.07 1986.13 352.343 Q1986.13 343.593 1989.18 339.01 Q1992.26 334.404 1998.07 334.404 Z" fill="#000000" fill-rule="nonzero" fill-opacity="1" /><path clip-path="url(#clip960)" d="M2018.23 363.709 L2023.12 363.709 L2023.12 369.589 L2018.23 369.589 L2018.23 363.709 Z" fill="#000000" fill-rule="nonzero" fill-opacity="1" /><path clip-path="url(#clip960)" d="M2033.35 335.029 L2051.7 335.029 L2051.7 338.964 L2037.63 338.964 L2037.63 347.436 Q2038.65 347.089 2039.67 346.927 Q2040.68 346.742 2041.7 346.742 Q2047.49 346.742 2050.87 349.913 Q2054.25 353.084 2054.25 358.501 Q2054.25 364.079 2050.78 367.181 Q2047.31 370.26 2040.99 370.26 Q2038.81 370.26 2036.54 369.89 Q2034.3 369.519 2031.89 368.778 L2031.89 364.079 Q2033.97 365.214 2036.19 365.769 Q2038.42 366.325 2040.89 366.325 Q2044.9 366.325 2047.24 364.218 Q2049.57 362.112 2049.57 358.501 Q2049.57 354.89 2047.24 352.783 Q2044.9 350.677 2040.89 350.677 Q2039.02 350.677 2037.14 351.093 Q2035.29 351.51 2033.35 352.39 L2033.35 335.029 Z" fill="#000000" fill-rule="nonzero" fill-opacity="1" /><path clip-path="url(#clip960)" d="M2063.46 363.709 L2068.35 363.709 L2068.35 369.589 L2063.46 369.589 L2063.46 363.709 Z" fill="#000000" fill-rule="nonzero" fill-opacity="1" /><path clip-path="url(#clip960)" d="M2088.53 338.107 Q2084.92 338.107 2083.09 341.672 Q2081.29 345.214 2081.29 352.343 Q2081.29 359.45 2083.09 363.015 Q2084.92 366.556 2088.53 366.556 Q2092.17 366.556 2093.97 363.015 Q2095.8 359.45 2095.8 352.343 Q2095.8 345.214 2093.97 341.672 Q2092.17 338.107 2088.53 338.107 M2088.53 334.404 Q2094.34 334.404 2097.4 339.01 Q2100.48 343.593 2100.48 352.343 Q2100.48 361.07 2097.4 365.677 Q2094.34 370.26 2088.53 370.26 Q2082.72 370.26 2079.64 365.677 Q2076.59 361.07 2076.59 352.343 Q2076.59 343.593 2079.64 339.01 Q2082.72 334.404 2088.53 334.404 Z" fill="#000000" fill-rule="nonzero" fill-opacity="1" /><polyline clip-path="url(#clip960)" style="stroke:#c271d2; stroke-linecap:round; stroke-linejoin:round; stroke-width:8; stroke-opacity:1; fill:none" points="1790.53,404.149 1932.67,404.149 "/>
<path clip-path="url(#clip960)" d="M1956.36 395.503 L1960.87 395.503 L1968.97 417.262 L1977.07 395.503 L1981.59 395.503 L1971.87 421.429 L1966.08 421.429 L1956.36 395.503 Z" fill="#000000" fill-rule="nonzero" fill-opacity="1" /><path clip-path="url(#clip960)" d="M1998.07 389.947 Q1994.46 389.947 1992.63 393.512 Q1990.82 397.054 1990.82 404.183 Q1990.82 411.29 1992.63 414.855 Q1994.46 418.396 1998.07 418.396 Q2001.7 418.396 2003.51 414.855 Q2005.34 411.29 2005.34 404.183 Q2005.34 397.054 2003.51 393.512 Q2001.7 389.947 1998.07 389.947 M1998.07 386.244 Q2003.88 386.244 2006.94 390.85 Q2010.01 395.433 2010.01 404.183 Q2010.01 412.91 2006.94 417.517 Q2003.88 422.1 1998.07 422.1 Q1992.26 422.1 1989.18 417.517 Q1986.13 412.91 1986.13 404.183 Q1986.13 395.433 1989.18 390.85 Q1992.26 386.244 1998.07 386.244 Z" fill="#000000" fill-rule="nonzero" fill-opacity="1" /><path clip-path="url(#clip960)" d="M2018.23 415.549 L2023.12 415.549 L2023.12 421.429 L2018.23 421.429 L2018.23 415.549 Z" fill="#000000" fill-rule="nonzero" fill-opacity="1" /><path clip-path="url(#clip960)" d="M2047.47 402.794 Q2050.82 403.512 2052.7 405.781 Q2054.6 408.049 2054.6 411.382 Q2054.6 416.498 2051.08 419.299 Q2047.56 422.1 2041.08 422.1 Q2038.9 422.1 2036.59 421.66 Q2034.3 421.243 2031.84 420.387 L2031.84 415.873 Q2033.79 417.007 2036.1 417.586 Q2038.42 418.165 2040.94 418.165 Q2045.34 418.165 2047.63 416.429 Q2049.94 414.693 2049.94 411.382 Q2049.94 408.327 2047.79 406.614 Q2045.66 404.878 2041.84 404.878 L2037.81 404.878 L2037.81 401.035 L2042.03 401.035 Q2045.48 401.035 2047.31 399.669 Q2049.13 398.281 2049.13 395.688 Q2049.13 393.026 2047.24 391.614 Q2045.36 390.179 2041.84 390.179 Q2039.92 390.179 2037.72 390.595 Q2035.52 391.012 2032.88 391.892 L2032.88 387.725 Q2035.55 386.984 2037.86 386.614 Q2040.2 386.244 2042.26 386.244 Q2047.58 386.244 2050.68 388.674 Q2053.79 391.082 2053.79 395.202 Q2053.79 398.072 2052.14 400.063 Q2050.5 402.031 2047.47 402.794 Z" fill="#000000" fill-rule="nonzero" fill-opacity="1" /><path clip-path="url(#clip960)" d="M2063.46 415.549 L2068.35 415.549 L2068.35 421.429 L2063.46 421.429 L2063.46 415.549 Z" fill="#000000" fill-rule="nonzero" fill-opacity="1" /><path clip-path="url(#clip960)" d="M2082.56 417.493 L2098.88 417.493 L2098.88 421.429 L2076.93 421.429 L2076.93 417.493 Q2079.6 414.739 2084.18 410.109 Q2088.79 405.456 2089.97 404.114 Q2092.21 401.591 2093.09 399.855 Q2093.99 398.095 2093.99 396.406 Q2093.99 393.651 2092.05 391.915 Q2090.13 390.179 2087.03 390.179 Q2084.83 390.179 2082.37 390.943 Q2079.94 391.707 2077.17 393.257 L2077.17 388.535 Q2079.99 387.401 2082.44 386.822 Q2084.9 386.244 2086.93 386.244 Q2092.3 386.244 2095.5 388.929 Q2098.69 391.614 2098.69 396.105 Q2098.69 398.234 2097.88 400.156 Q2097.1 402.054 2094.99 404.646 Q2094.41 405.318 2091.31 408.535 Q2088.21 411.73 2082.56 417.493 Z" fill="#000000" fill-rule="nonzero" fill-opacity="1" /><path clip-path="url(#clip960)" d="M2146.91 416.498 L2146.91 407.216 L2139.27 407.216 L2139.27 403.373 L2151.54 403.373 L2151.54 418.211 Q2148.83 420.132 2145.57 421.128 Q2142.3 422.1 2138.6 422.1 Q2130.5 422.1 2125.92 417.378 Q2121.36 412.632 2121.36 404.183 Q2121.36 395.711 2125.92 390.989 Q2130.5 386.244 2138.6 386.244 Q2141.98 386.244 2145.01 387.077 Q2148.07 387.91 2150.64 389.531 L2150.64 394.507 Q2148.05 392.308 2145.13 391.197 Q2142.21 390.086 2138.99 390.086 Q2132.65 390.086 2129.46 393.628 Q2126.29 397.169 2126.29 404.183 Q2126.29 411.174 2129.46 414.716 Q2132.65 418.257 2138.99 418.257 Q2141.47 418.257 2143.42 417.841 Q2145.36 417.401 2146.91 416.498 Z" fill="#000000" fill-rule="nonzero" fill-opacity="1" /><path clip-path="url(#clip960)" d="M2164.76 390.711 L2164.76 403.697 L2170.64 403.697 Q2173.9 403.697 2175.68 402.007 Q2177.47 400.318 2177.47 397.193 Q2177.47 394.091 2175.68 392.401 Q2173.9 390.711 2170.64 390.711 L2164.76 390.711 M2160.08 386.869 L2170.64 386.869 Q2176.45 386.869 2179.41 389.507 Q2182.4 392.123 2182.4 397.193 Q2182.4 402.308 2179.41 404.924 Q2176.45 407.54 2170.64 407.54 L2164.76 407.54 L2164.76 421.429 L2160.08 421.429 L2160.08 386.869 Z" fill="#000000" fill-rule="nonzero" fill-opacity="1" /><path clip-path="url(#clip960)" d="M2188.14 386.869 L2192.84 386.869 L2192.84 407.864 Q2192.84 413.419 2194.85 415.873 Q2196.86 418.304 2201.38 418.304 Q2205.87 418.304 2207.88 415.873 Q2209.9 413.419 2209.9 407.864 L2209.9 386.869 L2214.6 386.869 L2214.6 408.443 Q2214.6 415.202 2211.24 418.651 Q2207.91 422.1 2201.38 422.1 Q2194.83 422.1 2191.47 418.651 Q2188.14 415.202 2188.14 408.443 L2188.14 386.869 Z" fill="#000000" fill-rule="nonzero" fill-opacity="1" /><polyline clip-path="url(#clip960)" style="stroke:#3da44d; stroke-linecap:round; stroke-linejoin:round; stroke-width:8; stroke-opacity:1; fill:none" points="1790.53,455.989 1932.67,455.989 "/>
<path clip-path="url(#clip960)" d="M1956.36 447.343 L1960.87 447.343 L1968.97 469.102 L1977.07 447.343 L1981.59 447.343 L1971.87 473.269 L1966.08 473.269 L1956.36 447.343 Z" fill="#000000" fill-rule="nonzero" fill-opacity="1" /><path clip-path="url(#clip960)" d="M1998.07 441.787 Q1994.46 441.787 1992.63 445.352 Q1990.82 448.894 1990.82 456.023 Q1990.82 463.13 1992.63 466.695 Q1994.46 470.236 1998.07 470.236 Q2001.7 470.236 2003.51 466.695 Q2005.34 463.13 2005.34 456.023 Q2005.34 448.894 2003.51 445.352 Q2001.7 441.787 1998.07 441.787 M1998.07 438.084 Q2003.88 438.084 2006.94 442.69 Q2010.01 447.273 2010.01 456.023 Q2010.01 464.75 2006.94 469.357 Q2003.88 473.94 1998.07 473.94 Q1992.26 473.94 1989.18 469.357 Q1986.13 464.75 1986.13 456.023 Q1986.13 447.273 1989.18 442.69 Q1992.26 438.084 1998.07 438.084 Z" fill="#000000" fill-rule="nonzero" fill-opacity="1" /><path clip-path="url(#clip960)" d="M2018.23 467.389 L2023.12 467.389 L2023.12 473.269 L2018.23 473.269 L2018.23 467.389 Z" fill="#000000" fill-rule="nonzero" fill-opacity="1" /><path clip-path="url(#clip960)" d="M2047.47 454.634 Q2050.82 455.352 2052.7 457.621 Q2054.6 459.889 2054.6 463.222 Q2054.6 468.338 2051.08 471.139 Q2047.56 473.94 2041.08 473.94 Q2038.9 473.94 2036.59 473.5 Q2034.3 473.083 2031.84 472.227 L2031.84 467.713 Q2033.79 468.847 2036.1 469.426 Q2038.42 470.005 2040.94 470.005 Q2045.34 470.005 2047.63 468.269 Q2049.94 466.533 2049.94 463.222 Q2049.94 460.167 2047.79 458.454 Q2045.66 456.718 2041.84 456.718 L2037.81 456.718 L2037.81 452.875 L2042.03 452.875 Q2045.48 452.875 2047.31 451.509 Q2049.13 450.121 2049.13 447.528 Q2049.13 444.866 2047.24 443.454 Q2045.36 442.019 2041.84 442.019 Q2039.92 442.019 2037.72 442.435 Q2035.52 442.852 2032.88 443.732 L2032.88 439.565 Q2035.55 438.824 2037.86 438.454 Q2040.2 438.084 2042.26 438.084 Q2047.58 438.084 2050.68 440.514 Q2053.79 442.922 2053.79 447.042 Q2053.79 449.912 2052.14 451.903 Q2050.5 453.871 2047.47 454.634 Z" fill="#000000" fill-rule="nonzero" fill-opacity="1" /><path clip-path="url(#clip960)" d="M2063.46 467.389 L2068.35 467.389 L2068.35 473.269 L2063.46 473.269 L2063.46 467.389 Z" fill="#000000" fill-rule="nonzero" fill-opacity="1" /><path clip-path="url(#clip960)" d="M2092.7 454.634 Q2096.05 455.352 2097.93 457.621 Q2099.83 459.889 2099.83 463.222 Q2099.83 468.338 2096.31 471.139 Q2092.79 473.94 2086.31 473.94 Q2084.13 473.94 2081.82 473.5 Q2079.53 473.083 2077.07 472.227 L2077.07 467.713 Q2079.02 468.847 2081.33 469.426 Q2083.65 470.005 2086.17 470.005 Q2090.57 470.005 2092.86 468.269 Q2095.18 466.533 2095.18 463.222 Q2095.18 460.167 2093.02 458.454 Q2090.89 456.718 2087.07 456.718 L2083.05 456.718 L2083.05 452.875 L2087.26 452.875 Q2090.71 452.875 2092.54 451.509 Q2094.37 450.121 2094.37 447.528 Q2094.37 444.866 2092.47 443.454 Q2090.59 442.019 2087.07 442.019 Q2085.15 442.019 2082.95 442.435 Q2080.75 442.852 2078.12 443.732 L2078.12 439.565 Q2080.78 438.824 2083.09 438.454 Q2085.43 438.084 2087.49 438.084 Q2092.81 438.084 2095.92 440.514 Q2099.02 442.922 2099.02 447.042 Q2099.02 449.912 2097.37 451.903 Q2095.73 453.871 2092.7 454.634 Z" fill="#000000" fill-rule="nonzero" fill-opacity="1" /><path clip-path="url(#clip960)" d="M2146.91 468.338 L2146.91 459.056 L2139.27 459.056 L2139.27 455.213 L2151.54 455.213 L2151.54 470.051 Q2148.83 471.972 2145.57 472.968 Q2142.3 473.94 2138.6 473.94 Q2130.5 473.94 2125.92 469.218 Q2121.36 464.472 2121.36 456.023 Q2121.36 447.551 2125.92 442.829 Q2130.5 438.084 2138.6 438.084 Q2141.98 438.084 2145.01 438.917 Q2148.07 439.75 2150.64 441.371 L2150.64 446.347 Q2148.05 444.148 2145.13 443.037 Q2142.21 441.926 2138.99 441.926 Q2132.65 441.926 2129.46 445.468 Q2126.29 449.009 2126.29 456.023 Q2126.29 463.014 2129.46 466.556 Q2132.65 470.097 2138.99 470.097 Q2141.47 470.097 2143.42 469.681 Q2145.36 469.241 2146.91 468.338 Z" fill="#000000" fill-rule="nonzero" fill-opacity="1" /><path clip-path="url(#clip960)" d="M2164.76 442.551 L2164.76 455.537 L2170.64 455.537 Q2173.9 455.537 2175.68 453.847 Q2177.47 452.158 2177.47 449.033 Q2177.47 445.931 2175.68 444.241 Q2173.9 442.551 2170.64 442.551 L2164.76 442.551 M2160.08 438.709 L2170.64 438.709 Q2176.45 438.709 2179.41 441.347 Q2182.4 443.963 2182.4 449.033 Q2182.4 454.148 2179.41 456.764 Q2176.45 459.38 2170.64 459.38 L2164.76 459.38 L2164.76 473.269 L2160.08 473.269 L2160.08 438.709 Z" fill="#000000" fill-rule="nonzero" fill-opacity="1" /><path clip-path="url(#clip960)" d="M2188.14 438.709 L2192.84 438.709 L2192.84 459.704 Q2192.84 465.259 2194.85 467.713 Q2196.86 470.144 2201.38 470.144 Q2205.87 470.144 2207.88 467.713 Q2209.9 465.259 2209.9 459.704 L2209.9 438.709 L2214.6 438.709 L2214.6 460.283 Q2214.6 467.042 2211.24 470.491 Q2207.91 473.94 2201.38 473.94 Q2194.83 473.94 2191.47 470.491 Q2188.14 467.042 2188.14 460.283 L2188.14 438.709 Z" fill="#000000" fill-rule="nonzero" fill-opacity="1" /><polyline clip-path="url(#clip960)" style="stroke:#ac8d18; stroke-linecap:round; stroke-linejoin:round; stroke-width:8; stroke-opacity:1; fill:none" points="1790.53,507.829 1932.67,507.829 "/>
<path clip-path="url(#clip960)" d="M1956.36 499.183 L1960.87 499.183 L1968.97 520.942 L1977.07 499.183 L1981.59 499.183 L1971.87 525.109 L1966.08 525.109 L1956.36 499.183 Z" fill="#000000" fill-rule="nonzero" fill-opacity="1" /><path clip-path="url(#clip960)" d="M1998.07 493.627 Q1994.46 493.627 1992.63 497.192 Q1990.82 500.734 1990.82 507.863 Q1990.82 514.97 1992.63 518.535 Q1994.46 522.076 1998.07 522.076 Q2001.7 522.076 2003.51 518.535 Q2005.34 514.97 2005.34 507.863 Q2005.34 500.734 2003.51 497.192 Q2001.7 493.627 1998.07 493.627 M1998.07 489.924 Q2003.88 489.924 2006.94 494.53 Q2010.01 499.113 2010.01 507.863 Q2010.01 516.59 2006.94 521.197 Q2003.88 525.78 1998.07 525.78 Q1992.26 525.78 1989.18 521.197 Q1986.13 516.59 1986.13 507.863 Q1986.13 499.113 1989.18 494.53 Q1992.26 489.924 1998.07 489.924 Z" fill="#000000" fill-rule="nonzero" fill-opacity="1" /><path clip-path="url(#clip960)" d="M2018.23 519.229 L2023.12 519.229 L2023.12 525.109 L2018.23 525.109 L2018.23 519.229 Z" fill="#000000" fill-rule="nonzero" fill-opacity="1" /><path clip-path="url(#clip960)" d="M2033.35 490.549 L2051.7 490.549 L2051.7 494.484 L2037.63 494.484 L2037.63 502.956 Q2038.65 502.609 2039.67 502.447 Q2040.68 502.262 2041.7 502.262 Q2047.49 502.262 2050.87 505.433 Q2054.25 508.604 2054.25 514.021 Q2054.25 519.599 2050.78 522.701 Q2047.31 525.78 2040.99 525.78 Q2038.81 525.78 2036.54 525.41 Q2034.3 525.039 2031.89 524.298 L2031.89 519.599 Q2033.97 520.734 2036.19 521.289 Q2038.42 521.845 2040.89 521.845 Q2044.9 521.845 2047.24 519.738 Q2049.57 517.632 2049.57 514.021 Q2049.57 510.41 2047.24 508.303 Q2044.9 506.197 2040.89 506.197 Q2039.02 506.197 2037.14 506.613 Q2035.29 507.03 2033.35 507.91 L2033.35 490.549 Z" fill="#000000" fill-rule="nonzero" fill-opacity="1" /><path clip-path="url(#clip960)" d="M2063.46 519.229 L2068.35 519.229 L2068.35 525.109 L2063.46 525.109 L2063.46 519.229 Z" fill="#000000" fill-rule="nonzero" fill-opacity="1" /><path clip-path="url(#clip960)" d="M2088.53 493.627 Q2084.92 493.627 2083.09 497.192 Q2081.29 500.734 2081.29 507.863 Q2081.29 514.97 2083.09 518.535 Q2084.92 522.076 2088.53 522.076 Q2092.17 522.076 2093.97 518.535 Q2095.8 514.97 2095.8 507.863 Q2095.8 500.734 2093.97 497.192 Q2092.17 493.627 2088.53 493.627 M2088.53 489.924 Q2094.34 489.924 2097.4 494.53 Q2100.48 499.113 2100.48 507.863 Q2100.48 516.59 2097.4 521.197 Q2094.34 525.78 2088.53 525.78 Q2082.72 525.78 2079.64 521.197 Q2076.59 516.59 2076.59 507.863 Q2076.59 499.113 2079.64 494.53 Q2082.72 489.924 2088.53 489.924 Z" fill="#000000" fill-rule="nonzero" fill-opacity="1" /><path clip-path="url(#clip960)" d="M2146.91 520.178 L2146.91 510.896 L2139.27 510.896 L2139.27 507.053 L2151.54 507.053 L2151.54 521.891 Q2148.83 523.812 2145.57 524.808 Q2142.3 525.78 2138.6 525.78 Q2130.5 525.78 2125.92 521.058 Q2121.36 516.312 2121.36 507.863 Q2121.36 499.391 2125.92 494.669 Q2130.5 489.924 2138.6 489.924 Q2141.98 489.924 2145.01 490.757 Q2148.07 491.59 2150.64 493.211 L2150.64 498.187 Q2148.05 495.988 2145.13 494.877 Q2142.21 493.766 2138.99 493.766 Q2132.65 493.766 2129.46 497.308 Q2126.29 500.849 2126.29 507.863 Q2126.29 514.854 2129.46 518.396 Q2132.65 521.937 2138.99 521.937 Q2141.47 521.937 2143.42 521.521 Q2145.36 521.081 2146.91 520.178 Z" fill="#000000" fill-rule="nonzero" fill-opacity="1" /><path clip-path="url(#clip960)" d="M2164.76 494.391 L2164.76 507.377 L2170.64 507.377 Q2173.9 507.377 2175.68 505.687 Q2177.47 503.998 2177.47 500.873 Q2177.47 497.771 2175.68 496.081 Q2173.9 494.391 2170.64 494.391 L2164.76 494.391 M2160.08 490.549 L2170.64 490.549 Q2176.45 490.549 2179.41 493.187 Q2182.4 495.803 2182.4 500.873 Q2182.4 505.988 2179.41 508.604 Q2176.45 511.22 2170.64 511.22 L2164.76 511.22 L2164.76 525.109 L2160.08 525.109 L2160.08 490.549 Z" fill="#000000" fill-rule="nonzero" fill-opacity="1" /><path clip-path="url(#clip960)" d="M2188.14 490.549 L2192.84 490.549 L2192.84 511.544 Q2192.84 517.099 2194.85 519.553 Q2196.86 521.984 2201.38 521.984 Q2205.87 521.984 2207.88 519.553 Q2209.9 517.099 2209.9 511.544 L2209.9 490.549 L2214.6 490.549 L2214.6 512.123 Q2214.6 518.882 2211.24 522.331 Q2207.91 525.78 2201.38 525.78 Q2194.83 525.78 2191.47 522.331 Q2188.14 518.882 2188.14 512.123 L2188.14 490.549 Z" fill="#000000" fill-rule="nonzero" fill-opacity="1" /></svg>
