<?xml version="1.0" encoding="utf-8"?>
<svg xmlns="http://www.w3.org/2000/svg" xmlns:xlink="http://www.w3.org/1999/xlink" width="600" height="400" viewBox="0 0 2400 1600">
<defs>
  <clipPath id="clip150">
    <rect x="0" y="0" width="2400" height="1600"/>
  </clipPath>
</defs>
<path clip-path="url(#clip150)" d="M0 1600 L2400 1600 L2400 0 L0 0  Z" fill="#ffffff" fill-rule="evenodd" fill-opacity="1"/>
<defs>
  <clipPath id="clip151">
    <rect x="480" y="0" width="1681" height="1600"/>
  </clipPath>
</defs>
<path clip-path="url(#clip150)" d="M220.716 1423.18 L1766.84 1423.18 L1766.84 47.2441 L220.716 47.2441  Z" fill="#ffffff" fill-rule="evenodd" fill-opacity="1"/>
<defs>
  <clipPath id="clip152">
    <rect x="220" y="47" width="1547" height="1377"/>
  </clipPath>
</defs>
<polyline clip-path="url(#clip152)" style="stroke:#000000; stroke-linecap:round; stroke-linejoin:round; stroke-width:2; stroke-opacity:0.1; fill:none" points="472.847,1423.18 472.847,47.2441 "/>
<polyline clip-path="url(#clip152)" style="stroke:#000000; stroke-linecap:round; stroke-linejoin:round; stroke-width:2; stroke-opacity:0.1; fill:none" points="889.592,1423.18 889.592,47.2441 "/>
<polyline clip-path="url(#clip152)" style="stroke:#000000; stroke-linecap:round; stroke-linejoin:round; stroke-width:2; stroke-opacity:0.1; fill:none" points="1306.34,1423.18 1306.34,47.2441 "/>
<polyline clip-path="url(#clip152)" style="stroke:#000000; stroke-linecap:round; stroke-linejoin:round; stroke-width:2; stroke-opacity:0.1; fill:none" points="1723.08,1423.18 1723.08,47.2441 "/>
<polyline clip-path="url(#clip152)" style="stroke:#000000; stroke-linecap:round; stroke-linejoin:round; stroke-width:2; stroke-opacity:0.1; fill:none" points="472.847,1423.18 472.847,47.2441 "/>
<polyline clip-path="url(#clip152)" style="stroke:#000000; stroke-linecap:round; stroke-linejoin:round; stroke-width:2; stroke-opacity:0.1; fill:none" points="889.592,1423.18 889.592,47.2441 "/>
<polyline clip-path="url(#clip152)" style="stroke:#000000; stroke-linecap:round; stroke-linejoin:round; stroke-width:2; stroke-opacity:0.1; fill:none" points="1306.34,1423.18 1306.34,47.2441 "/>
<polyline clip-path="url(#clip152)" style="stroke:#000000; stroke-linecap:round; stroke-linejoin:round; stroke-width:2; stroke-opacity:0.1; fill:none" points="1723.08,1423.18 1723.08,47.2441 "/>
<polyline clip-path="url(#clip152)" style="stroke:#000000; stroke-linecap:round; stroke-linejoin:round; stroke-width:2; stroke-opacity:0.1; fill:none" points="220.716,1164.64 1766.84,1164.64 "/>
<polyline clip-path="url(#clip152)" style="stroke:#000000; stroke-linecap:round; stroke-linejoin:round; stroke-width:2; stroke-opacity:0.1; fill:none" points="220.716,305.785 1766.84,305.785 "/>
<polyline clip-path="url(#clip152)" style="stroke:#000000; stroke-linecap:round; stroke-linejoin:round; stroke-width:2; stroke-opacity:0.1; fill:none" points="220.716,1164.64 1766.84,1164.64 "/>
<polyline clip-path="url(#clip152)" style="stroke:#000000; stroke-linecap:round; stroke-linejoin:round; stroke-width:2; stroke-opacity:0.1; fill:none" points="220.716,305.785 1766.84,305.785 "/>
<polyline clip-path="url(#clip150)" style="stroke:#000000; stroke-linecap:round; stroke-linejoin:round; stroke-width:4; stroke-opacity:1; fill:none" points="220.716,1423.18 1766.84,1423.18 "/>
<polyline clip-path="url(#clip150)" style="stroke:#000000; stroke-linecap:round; stroke-linejoin:round; stroke-width:4; stroke-opacity:1; fill:none" points="220.716,47.2441 1766.84,47.2441 "/>
<polyline clip-path="url(#clip150)" style="stroke:#000000; stroke-linecap:round; stroke-linejoin:round; stroke-width:4; stroke-opacity:1; fill:none" points="472.847,1423.18 472.847,1404.28 "/>
<polyline clip-path="url(#clip150)" style="stroke:#000000; stroke-linecap:round; stroke-linejoin:round; stroke-width:4; stroke-opacity:1; fill:none" points="889.592,1423.18 889.592,1404.28 "/>
<polyline clip-path="url(#clip150)" style="stroke:#000000; stroke-linecap:round; stroke-linejoin:round; stroke-width:4; stroke-opacity:1; fill:none" points="1306.34,1423.18 1306.34,1404.28 "/>
<polyline clip-path="url(#clip150)" style="stroke:#000000; stroke-linecap:round; stroke-linejoin:round; stroke-width:4; stroke-opacity:1; fill:none" points="1723.08,1423.18 1723.08,1404.28 "/>
<polyline clip-path="url(#clip150)" style="stroke:#000000; stroke-linecap:round; stroke-linejoin:round; stroke-width:4; stroke-opacity:1; fill:none" points="472.847,47.2441 472.847,66.1417 "/>
<polyline clip-path="url(#clip150)" style="stroke:#000000; stroke-linecap:round; stroke-linejoin:round; stroke-width:4; stroke-opacity:1; fill:none" points="889.592,47.2441 889.592,66.1417 "/>
<polyline clip-path="url(#clip150)" style="stroke:#000000; stroke-linecap:round; stroke-linejoin:round; stroke-width:4; stroke-opacity:1; fill:none" points="1306.34,47.2441 1306.34,66.1417 "/>
<polyline clip-path="url(#clip150)" style="stroke:#000000; stroke-linecap:round; stroke-linejoin:round; stroke-width:4; stroke-opacity:1; fill:none" points="1723.08,47.2441 1723.08,66.1417 "/>
<path clip-path="url(#clip150)" d="M467.499 1481.64 L483.819 1481.64 L483.819 1485.58 L461.874 1485.58 L461.874 1481.64 Q464.536 1478.89 469.12 1474.26 Q473.726 1469.61 474.907 1468.27 Q477.152 1465.74 478.032 1464.01 Q478.935 1462.25 478.935 1460.56 Q478.935 1457.8 476.99 1456.07 Q475.069 1454.33 471.967 1454.33 Q469.768 1454.33 467.314 1455.09 Q464.884 1455.86 462.106 1457.41 L462.106 1452.69 Q464.93 1451.55 467.384 1450.97 Q469.837 1450.39 471.874 1450.39 Q477.245 1450.39 480.439 1453.08 Q483.634 1455.77 483.634 1460.26 Q483.634 1462.39 482.823 1464.31 Q482.036 1466.2 479.93 1468.8 Q479.351 1469.47 476.249 1472.69 Q473.148 1475.88 467.499 1481.64 Z" fill="#000000" fill-rule="nonzero" fill-opacity="1" /><path clip-path="url(#clip150)" d="M892.602 1455.09 L880.796 1473.54 L892.602 1473.54 L892.602 1455.09 M891.375 1451.02 L897.254 1451.02 L897.254 1473.54 L902.185 1473.54 L902.185 1477.43 L897.254 1477.43 L897.254 1485.58 L892.602 1485.58 L892.602 1477.43 L877 1477.43 L877 1472.92 L891.375 1451.02 Z" fill="#000000" fill-rule="nonzero" fill-opacity="1" /><path clip-path="url(#clip150)" d="M1306.74 1466.44 Q1303.59 1466.44 1301.74 1468.59 Q1299.91 1470.74 1299.91 1474.49 Q1299.91 1478.22 1301.74 1480.39 Q1303.59 1482.55 1306.74 1482.55 Q1309.89 1482.55 1311.72 1480.39 Q1313.57 1478.22 1313.57 1474.49 Q1313.57 1470.74 1311.72 1468.59 Q1309.89 1466.44 1306.74 1466.44 M1316.03 1451.78 L1316.03 1456.04 Q1314.27 1455.21 1312.46 1454.77 Q1310.68 1454.33 1308.92 1454.33 Q1304.29 1454.33 1301.84 1457.45 Q1299.41 1460.58 1299.06 1466.9 Q1300.42 1464.89 1302.48 1463.82 Q1304.54 1462.73 1307.02 1462.73 Q1312.23 1462.73 1315.24 1465.9 Q1318.27 1469.05 1318.27 1474.49 Q1318.27 1479.82 1315.12 1483.03 Q1311.97 1486.25 1306.74 1486.25 Q1300.75 1486.25 1297.58 1481.67 Q1294.41 1477.06 1294.41 1468.33 Q1294.41 1460.14 1298.29 1455.28 Q1302.18 1450.39 1308.73 1450.39 Q1310.49 1450.39 1312.28 1450.74 Q1314.08 1451.09 1316.03 1451.78 Z" fill="#000000" fill-rule="nonzero" fill-opacity="1" /><path clip-path="url(#clip150)" d="M1723.08 1469.17 Q1719.75 1469.17 1717.83 1470.95 Q1715.93 1472.73 1715.93 1475.86 Q1715.93 1478.98 1717.83 1480.77 Q1719.75 1482.55 1723.08 1482.55 Q1726.42 1482.55 1728.34 1480.77 Q1730.26 1478.96 1730.26 1475.86 Q1730.26 1472.73 1728.34 1470.95 Q1726.44 1469.17 1723.08 1469.17 M1718.41 1467.18 Q1715.4 1466.44 1713.71 1464.38 Q1712.04 1462.32 1712.04 1459.35 Q1712.04 1455.21 1714.98 1452.8 Q1717.94 1450.39 1723.08 1450.39 Q1728.25 1450.39 1731.19 1452.8 Q1734.13 1455.21 1734.13 1459.35 Q1734.13 1462.32 1732.44 1464.38 Q1730.77 1466.44 1727.78 1467.18 Q1731.16 1467.96 1733.04 1470.26 Q1734.94 1472.55 1734.94 1475.86 Q1734.94 1480.88 1731.86 1483.57 Q1728.8 1486.25 1723.08 1486.25 Q1717.37 1486.25 1714.29 1483.57 Q1711.23 1480.88 1711.23 1475.86 Q1711.23 1472.55 1713.13 1470.26 Q1715.03 1467.96 1718.41 1467.18 M1716.69 1459.79 Q1716.69 1462.48 1718.36 1463.98 Q1720.05 1465.49 1723.08 1465.49 Q1726.09 1465.49 1727.78 1463.98 Q1729.5 1462.48 1729.5 1459.79 Q1729.5 1457.11 1727.78 1455.6 Q1726.09 1454.1 1723.08 1454.1 Q1720.05 1454.1 1718.36 1455.6 Q1716.69 1457.11 1716.69 1459.79 Z" fill="#000000" fill-rule="nonzero" fill-opacity="1" /><path clip-path="url(#clip150)" d="M812.945 1539.37 L803.683 1539.37 L801.009 1550 L810.335 1550 L812.945 1539.37 M808.171 1521.26 L804.86 1534.46 L814.154 1534.46 L817.496 1521.26 L822.589 1521.26 L819.311 1534.46 L829.241 1534.46 L829.241 1539.37 L818.069 1539.37 L815.459 1550 L825.581 1550 L825.581 1554.87 L814.218 1554.87 L810.908 1568.04 L805.815 1568.04 L809.094 1554.87 L799.768 1554.87 L796.49 1568.04 L791.365 1568.04 L794.675 1554.87 L784.649 1554.87 L784.649 1550 L795.853 1550 L798.527 1539.37 L788.278 1539.37 L788.278 1534.46 L799.768 1534.46 L803.014 1521.26 L808.171 1521.26 Z" fill="#000000" fill-rule="nonzero" fill-opacity="1" /><path clip-path="url(#clip150)" d="M866.767 1562.7 L866.767 1581.6 L860.879 1581.6 L860.879 1532.4 L866.767 1532.4 L866.767 1537.81 Q868.613 1534.62 871.414 1533.1 Q874.247 1531.54 878.162 1531.54 Q884.655 1531.54 888.697 1536.69 Q892.771 1541.85 892.771 1550.25 Q892.771 1558.65 888.697 1563.81 Q884.655 1568.97 878.162 1568.97 Q874.247 1568.97 871.414 1567.44 Q868.613 1565.88 866.767 1562.7 M886.692 1550.25 Q886.692 1543.79 884.018 1540.13 Q881.376 1536.44 876.729 1536.44 Q872.082 1536.44 869.409 1540.13 Q866.767 1543.79 866.767 1550.25 Q866.767 1556.71 869.409 1560.4 Q872.082 1564.07 876.729 1564.07 Q881.376 1564.07 884.018 1560.4 Q886.692 1556.71 886.692 1550.25 Z" fill="#000000" fill-rule="nonzero" fill-opacity="1" /><path clip-path="url(#clip150)" d="M923.135 1537.87 Q922.149 1537.3 920.971 1537.04 Q919.825 1536.76 918.425 1536.76 Q913.459 1536.76 910.786 1540 Q908.144 1543.22 908.144 1549.27 L908.144 1568.04 L902.256 1568.04 L902.256 1532.4 L908.144 1532.4 L908.144 1537.93 Q909.99 1534.69 912.95 1533.13 Q915.91 1531.54 920.143 1531.54 Q920.748 1531.54 921.48 1531.63 Q922.212 1531.7 923.103 1531.85 L923.135 1537.87 Z" fill="#000000" fill-rule="nonzero" fill-opacity="1" /><path clip-path="url(#clip150)" d="M941.66 1536.5 Q936.949 1536.5 934.212 1540.19 Q931.474 1543.85 931.474 1550.25 Q931.474 1556.65 934.18 1560.34 Q936.917 1564 941.66 1564 Q946.338 1564 949.076 1560.31 Q951.813 1556.62 951.813 1550.25 Q951.813 1543.92 949.076 1540.23 Q946.338 1536.5 941.66 1536.5 M941.66 1531.54 Q949.298 1531.54 953.659 1536.5 Q958.019 1541.47 958.019 1550.25 Q958.019 1559 953.659 1564 Q949.298 1568.97 941.66 1568.97 Q933.989 1568.97 929.628 1564 Q925.3 1559 925.3 1550.25 Q925.3 1541.47 929.628 1536.5 Q933.989 1531.54 941.66 1531.54 Z" fill="#000000" fill-rule="nonzero" fill-opacity="1" /><path clip-path="url(#clip150)" d="M993.381 1533.76 L993.381 1539.24 Q990.898 1537.87 988.384 1537.2 Q985.901 1536.5 983.355 1536.5 Q977.658 1536.5 974.507 1540.13 Q971.356 1543.73 971.356 1550.25 Q971.356 1556.78 974.507 1560.4 Q977.658 1564 983.355 1564 Q985.901 1564 988.384 1563.33 Q990.898 1562.63 993.381 1561.26 L993.381 1566.68 Q990.93 1567.82 988.288 1568.39 Q985.678 1568.97 982.718 1568.97 Q974.666 1568.97 969.923 1563.91 Q965.181 1558.85 965.181 1550.25 Q965.181 1541.53 969.955 1536.53 Q974.761 1531.54 983.1 1531.54 Q985.806 1531.54 988.384 1532.11 Q990.962 1532.65 993.381 1533.76 Z" fill="#000000" fill-rule="nonzero" fill-opacity="1" /><path clip-path="url(#clip150)" d="M1034.06 1548.76 L1034.06 1551.62 L1007.13 1551.62 Q1007.51 1557.67 1010.76 1560.85 Q1014.04 1564 1019.86 1564 Q1023.24 1564 1026.39 1563.17 Q1029.57 1562.35 1032.69 1560.69 L1032.69 1566.23 Q1029.54 1567.57 1026.23 1568.27 Q1022.92 1568.97 1019.51 1568.97 Q1010.98 1568.97 1005.98 1564 Q1001.02 1559.04 1001.02 1550.57 Q1001.02 1541.82 1005.73 1536.69 Q1010.47 1531.54 1018.49 1531.54 Q1025.69 1531.54 1029.86 1536.18 Q1034.06 1540.8 1034.06 1548.76 M1028.2 1547.04 Q1028.14 1542.23 1025.5 1539.37 Q1022.89 1536.5 1018.56 1536.5 Q1013.66 1536.5 1010.7 1539.27 Q1007.77 1542.04 1007.32 1547.07 L1028.2 1547.04 Z" fill="#000000" fill-rule="nonzero" fill-opacity="1" /><path clip-path="url(#clip150)" d="M1066.4 1533.45 L1066.4 1538.98 Q1063.91 1537.71 1061.24 1537.07 Q1058.57 1536.44 1055.7 1536.44 Q1051.34 1536.44 1049.14 1537.77 Q1046.98 1539.11 1046.98 1541.79 Q1046.98 1543.82 1048.54 1545 Q1050.1 1546.15 1054.81 1547.2 L1056.82 1547.64 Q1063.05 1548.98 1065.66 1551.43 Q1068.31 1553.85 1068.31 1558.21 Q1068.31 1563.17 1064.36 1566.07 Q1060.44 1568.97 1053.57 1568.97 Q1050.7 1568.97 1047.58 1568.39 Q1044.5 1567.85 1041.06 1566.74 L1041.06 1560.69 Q1044.31 1562.38 1047.46 1563.24 Q1050.61 1564.07 1053.7 1564.07 Q1057.83 1564.07 1060.06 1562.66 Q1062.29 1561.23 1062.29 1558.65 Q1062.29 1556.27 1060.67 1554.99 Q1059.07 1553.72 1053.63 1552.54 L1051.6 1552.07 Q1046.15 1550.92 1043.73 1548.56 Q1041.31 1546.18 1041.31 1542.04 Q1041.31 1537.01 1044.88 1534.27 Q1048.44 1531.54 1055 1531.54 Q1058.25 1531.54 1061.11 1532.01 Q1063.98 1532.49 1066.4 1533.45 Z" fill="#000000" fill-rule="nonzero" fill-opacity="1" /><path clip-path="url(#clip150)" d="M1100.36 1533.45 L1100.36 1538.98 Q1097.87 1537.71 1095.2 1537.07 Q1092.53 1536.44 1089.66 1536.44 Q1085.3 1536.44 1083.11 1537.77 Q1080.94 1539.11 1080.94 1541.79 Q1080.94 1543.82 1082.5 1545 Q1084.06 1546.15 1088.77 1547.2 L1090.78 1547.64 Q1097.01 1548.98 1099.62 1551.43 Q1102.27 1553.85 1102.27 1558.21 Q1102.27 1563.17 1098.32 1566.07 Q1094.4 1568.97 1087.53 1568.97 Q1084.67 1568.97 1081.55 1568.39 Q1078.46 1567.85 1075.02 1566.74 L1075.02 1560.69 Q1078.27 1562.38 1081.42 1563.24 Q1084.57 1564.07 1087.66 1564.07 Q1091.79 1564.07 1094.02 1562.66 Q1096.25 1561.23 1096.25 1558.65 Q1096.25 1556.27 1094.63 1554.99 Q1093.04 1553.72 1087.59 1552.54 L1085.56 1552.07 Q1080.11 1550.92 1077.69 1548.56 Q1075.28 1546.18 1075.28 1542.04 Q1075.28 1537.01 1078.84 1534.27 Q1082.41 1531.54 1088.96 1531.54 Q1092.21 1531.54 1095.07 1532.01 Q1097.94 1532.49 1100.36 1533.45 Z" fill="#000000" fill-rule="nonzero" fill-opacity="1" /><path clip-path="url(#clip150)" d="M1125.41 1536.5 Q1120.7 1536.5 1117.96 1540.19 Q1115.22 1543.85 1115.22 1550.25 Q1115.22 1556.65 1117.93 1560.34 Q1120.66 1564 1125.41 1564 Q1130.08 1564 1132.82 1560.31 Q1135.56 1556.62 1135.56 1550.25 Q1135.56 1543.92 1132.82 1540.23 Q1130.08 1536.5 1125.41 1536.5 M1125.41 1531.54 Q1133.04 1531.54 1137.4 1536.5 Q1141.77 1541.47 1141.77 1550.25 Q1141.77 1559 1137.4 1564 Q1133.04 1568.97 1125.41 1568.97 Q1117.73 1568.97 1113.37 1564 Q1109.05 1559 1109.05 1550.25 Q1109.05 1541.47 1113.37 1536.5 Q1117.73 1531.54 1125.41 1531.54 Z" fill="#000000" fill-rule="nonzero" fill-opacity="1" /><path clip-path="url(#clip150)" d="M1172.13 1537.87 Q1171.14 1537.3 1169.97 1537.04 Q1168.82 1536.76 1167.42 1536.76 Q1162.45 1536.76 1159.78 1540 Q1157.14 1543.22 1157.14 1549.27 L1157.14 1568.04 L1151.25 1568.04 L1151.25 1532.4 L1157.14 1532.4 L1157.14 1537.93 Q1158.98 1534.69 1161.94 1533.13 Q1164.9 1531.54 1169.14 1531.54 Q1169.74 1531.54 1170.47 1531.63 Q1171.21 1531.7 1172.1 1531.85 L1172.13 1537.87 Z" fill="#000000" fill-rule="nonzero" fill-opacity="1" /><path clip-path="url(#clip150)" d="M1201 1533.45 L1201 1538.98 Q1198.52 1537.71 1195.84 1537.07 Q1193.17 1536.44 1190.3 1536.44 Q1185.94 1536.44 1183.75 1537.77 Q1181.58 1539.11 1181.58 1541.79 Q1181.58 1543.82 1183.14 1545 Q1184.7 1546.15 1189.41 1547.2 L1191.42 1547.64 Q1197.66 1548.98 1200.27 1551.43 Q1202.91 1553.85 1202.91 1558.21 Q1202.91 1563.17 1198.96 1566.07 Q1195.05 1568.97 1188.17 1568.97 Q1185.31 1568.97 1182.19 1568.39 Q1179.1 1567.85 1175.66 1566.74 L1175.66 1560.69 Q1178.91 1562.38 1182.06 1563.24 Q1185.21 1564.07 1188.3 1564.07 Q1192.44 1564.07 1194.66 1562.66 Q1196.89 1561.23 1196.89 1558.65 Q1196.89 1556.27 1195.27 1554.99 Q1193.68 1553.72 1188.24 1552.54 L1186.2 1552.07 Q1180.76 1550.92 1178.34 1548.56 Q1175.92 1546.18 1175.92 1542.04 Q1175.92 1537.01 1179.48 1534.27 Q1183.05 1531.54 1189.6 1531.54 Q1192.85 1531.54 1195.71 1532.01 Q1198.58 1532.49 1201 1533.45 Z" fill="#000000" fill-rule="nonzero" fill-opacity="1" /><polyline clip-path="url(#clip150)" style="stroke:#000000; stroke-linecap:round; stroke-linejoin:round; stroke-width:4; stroke-opacity:1; fill:none" points="220.716,1423.18 220.716,47.2441 "/>
<polyline clip-path="url(#clip150)" style="stroke:#000000; stroke-linecap:round; stroke-linejoin:round; stroke-width:4; stroke-opacity:1; fill:none" points="1766.84,1423.18 1766.84,47.2441 "/>
<polyline clip-path="url(#clip150)" style="stroke:#000000; stroke-linecap:round; stroke-linejoin:round; stroke-width:4; stroke-opacity:1; fill:none" points="220.716,1164.64 234.42,1164.64 "/>
<polyline clip-path="url(#clip150)" style="stroke:#000000; stroke-linecap:round; stroke-linejoin:round; stroke-width:4; stroke-opacity:1; fill:none" points="220.716,305.785 234.42,305.785 "/>
<polyline clip-path="url(#clip150)" style="stroke:#000000; stroke-linecap:round; stroke-linejoin:round; stroke-width:4; stroke-opacity:1; fill:none" points="1766.84,1164.64 1753.14,1164.64 "/>
<polyline clip-path="url(#clip150)" style="stroke:#000000; stroke-linecap:round; stroke-linejoin:round; stroke-width:4; stroke-opacity:1; fill:none" points="1766.84,305.785 1753.14,305.785 "/>
<path clip-path="url(#clip150)" d="M115.59 1184.43 L123.229 1184.43 L123.229 1158.07 L114.918 1159.73 L114.918 1155.47 L123.182 1153.81 L127.858 1153.81 L127.858 1184.43 L135.497 1184.43 L135.497 1188.37 L115.59 1188.37 L115.59 1184.43 Z" fill="#000000" fill-rule="nonzero" fill-opacity="1" /><path clip-path="url(#clip150)" d="M154.941 1156.89 Q151.33 1156.89 149.502 1160.45 Q147.696 1163.99 147.696 1171.12 Q147.696 1178.23 149.502 1181.79 Q151.33 1185.33 154.941 1185.33 Q158.576 1185.33 160.381 1181.79 Q162.21 1178.23 162.21 1171.12 Q162.21 1163.99 160.381 1160.45 Q158.576 1156.89 154.941 1156.89 M154.941 1153.18 Q160.752 1153.18 163.807 1157.79 Q166.886 1162.37 166.886 1171.12 Q166.886 1179.85 163.807 1184.45 Q160.752 1189.04 154.941 1189.04 Q149.131 1189.04 146.053 1184.45 Q142.997 1179.85 142.997 1171.12 Q142.997 1162.37 146.053 1157.79 Q149.131 1153.18 154.941 1153.18 Z" fill="#000000" fill-rule="nonzero" fill-opacity="1" /><path clip-path="url(#clip150)" d="M171.456 1157.76 L184.716 1157.76 L184.716 1160.96 L166.886 1160.96 L166.886 1157.76 Q169.049 1155.52 172.773 1151.76 Q176.515 1147.98 177.475 1146.89 Q179.299 1144.84 180.014 1143.43 Q180.747 1142 180.747 1140.63 Q180.747 1138.39 179.167 1136.98 Q177.606 1135.57 175.086 1135.57 Q173.299 1135.57 171.306 1136.19 Q169.331 1136.81 167.074 1138.07 L167.074 1134.23 Q169.368 1133.31 171.362 1132.84 Q173.356 1132.37 175.011 1132.37 Q179.374 1132.37 181.97 1134.55 Q184.565 1136.73 184.565 1140.38 Q184.565 1142.11 183.907 1143.67 Q183.267 1145.21 181.556 1147.32 Q181.086 1147.87 178.565 1150.48 Q176.045 1153.08 171.456 1157.76 Z" fill="#000000" fill-rule="nonzero" fill-opacity="1" /><path clip-path="url(#clip150)" d="M114.931 325.577 L122.57 325.577 L122.57 299.212 L114.26 300.878 L114.26 296.619 L122.524 294.953 L127.2 294.953 L127.2 325.577 L134.839 325.577 L134.839 329.513 L114.931 329.513 L114.931 325.577 Z" fill="#000000" fill-rule="nonzero" fill-opacity="1" /><path clip-path="url(#clip150)" d="M154.283 298.031 Q150.672 298.031 148.843 301.596 Q147.038 305.138 147.038 312.267 Q147.038 319.374 148.843 322.938 Q150.672 326.48 154.283 326.48 Q157.917 326.48 159.723 322.938 Q161.552 319.374 161.552 312.267 Q161.552 305.138 159.723 301.596 Q157.917 298.031 154.283 298.031 M154.283 294.328 Q160.093 294.328 163.149 298.934 Q166.227 303.517 166.227 312.267 Q166.227 320.994 163.149 325.601 Q160.093 330.184 154.283 330.184 Q148.473 330.184 145.394 325.601 Q142.339 320.994 142.339 312.267 Q142.339 303.517 145.394 298.934 Q148.473 294.328 154.283 294.328 Z" fill="#000000" fill-rule="nonzero" fill-opacity="1" /><path clip-path="url(#clip150)" d="M178.923 286.962 Q181.65 287.545 183.173 289.388 Q184.716 291.231 184.716 293.94 Q184.716 298.096 181.857 300.372 Q178.998 302.648 173.732 302.648 Q171.964 302.648 170.083 302.29 Q168.221 301.952 166.227 301.256 L166.227 297.588 Q167.807 298.51 169.688 298.98 Q171.569 299.45 173.619 299.45 Q177.192 299.45 179.054 298.04 Q180.935 296.629 180.935 293.94 Q180.935 291.457 179.186 290.065 Q177.456 288.655 174.352 288.655 L171.08 288.655 L171.08 285.532 L174.503 285.532 Q177.305 285.532 178.791 284.423 Q180.277 283.294 180.277 281.188 Q180.277 279.025 178.735 277.878 Q177.211 276.712 174.352 276.712 Q172.791 276.712 171.005 277.05 Q169.218 277.389 167.074 278.103 L167.074 274.718 Q169.237 274.116 171.117 273.815 Q173.017 273.514 174.691 273.514 Q179.017 273.514 181.537 275.489 Q184.057 277.445 184.057 280.793 Q184.057 283.125 182.722 284.743 Q181.387 286.341 178.923 286.962 Z" fill="#000000" fill-rule="nonzero" fill-opacity="1" /><path clip-path="url(#clip150)" d="M16.4842 1025.92 L16.4842 995.872 L21.895 995.872 L21.895 1019.49 L35.9632 1019.49 L35.9632 996.858 L41.3741 996.858 L41.3741 1019.49 L58.5933 1019.49 L58.5933 995.299 L64.0042 995.299 L64.0042 1025.92 L16.4842 1025.92 Z" fill="#000000" fill-rule="nonzero" fill-opacity="1" /><path clip-path="url(#clip150)" d="M28.3562 955.354 L45.7028 968.245 L64.0042 954.686 L64.0042 961.592 L49.9996 971.969 L64.0042 982.345 L64.0042 989.251 L45.3526 975.406 L28.3562 988.074 L28.3562 981.167 L41.0558 971.714 L28.3562 962.261 L28.3562 955.354 Z" fill="#000000" fill-rule="nonzero" fill-opacity="1" /><path clip-path="url(#clip150)" d="M44.7161 917.924 L47.5806 917.924 L47.5806 944.851 Q53.6281 944.469 56.8109 941.222 Q59.9619 937.944 59.9619 932.119 Q59.9619 928.745 59.1344 925.594 Q58.3069 922.411 56.6518 919.292 L62.1899 919.292 Q63.5267 922.443 64.227 925.753 Q64.9272 929.064 64.9272 932.469 Q64.9272 940.999 59.9619 945.996 Q54.9967 950.962 46.5303 950.962 Q37.7774 950.962 32.6531 946.251 Q27.4968 941.509 27.4968 933.488 Q27.4968 926.295 32.1438 922.125 Q36.7589 917.924 44.7161 917.924 M42.9973 923.78 Q38.1912 923.844 35.3266 926.486 Q32.4621 929.095 32.4621 933.424 Q32.4621 938.326 35.2312 941.286 Q38.0002 944.214 43.0292 944.66 L42.9973 923.78 Z" fill="#000000" fill-rule="nonzero" fill-opacity="1" /><path clip-path="url(#clip150)" d="M29.7248 882.658 L35.1993 882.658 Q33.8307 885.14 33.1623 887.655 Q32.4621 890.137 32.4621 892.684 Q32.4621 898.381 36.0905 901.532 Q39.6872 904.683 46.212 904.683 Q52.7369 904.683 56.3653 901.532 Q59.9619 898.381 59.9619 892.684 Q59.9619 890.137 59.2935 887.655 Q58.5933 885.14 57.2247 882.658 L62.6355 882.658 Q63.7814 885.108 64.3543 887.75 Q64.9272 890.36 64.9272 893.32 Q64.9272 901.373 59.8664 906.115 Q54.8057 910.858 46.212 910.858 Q37.491 910.858 32.4939 906.083 Q27.4968 901.277 27.4968 892.938 Q27.4968 890.233 28.0697 887.655 Q28.6108 885.077 29.7248 882.658 Z" fill="#000000" fill-rule="nonzero" fill-opacity="1" /><path clip-path="url(#clip150)" d="M49.9359 873.077 L28.3562 873.077 L28.3562 867.221 L49.7131 867.221 Q54.7739 867.221 57.3202 865.247 Q59.8346 863.274 59.8346 859.327 Q59.8346 854.585 56.8109 851.848 Q53.7872 849.079 48.5673 849.079 L28.3562 849.079 L28.3562 843.222 L64.0042 843.222 L64.0042 849.079 L58.5296 849.079 Q61.7762 851.211 63.3676 854.044 Q64.9272 856.845 64.9272 860.569 Q64.9272 866.712 61.1078 869.894 Q57.2883 873.077 49.9359 873.077 M27.4968 858.341 L27.4968 858.341 Z" fill="#000000" fill-rule="nonzero" fill-opacity="1" /><path clip-path="url(#clip150)" d="M18.2347 825.366 L28.3562 825.366 L28.3562 813.303 L32.9077 813.303 L32.9077 825.366 L52.2594 825.366 Q56.6199 825.366 57.8613 824.189 Q59.1026 822.979 59.1026 819.319 L59.1026 813.303 L64.0042 813.303 L64.0042 819.319 Q64.0042 826.098 61.4897 828.676 Q58.9434 831.255 52.2594 831.255 L32.9077 831.255 L32.9077 835.551 L28.3562 835.551 L28.3562 831.255 L18.2347 831.255 L18.2347 825.366 Z" fill="#000000" fill-rule="nonzero" fill-opacity="1" /><path clip-path="url(#clip150)" d="M28.3562 805.601 L28.3562 799.744 L64.0042 799.744 L64.0042 805.601 L28.3562 805.601 M14.479 805.601 L14.479 799.744 L21.895 799.744 L21.895 805.601 L14.479 805.601 Z" fill="#000000" fill-rule="nonzero" fill-opacity="1" /><path clip-path="url(#clip150)" d="M32.4621 773.677 Q32.4621 778.387 36.1542 781.125 Q39.8145 783.862 46.212 783.862 Q52.6095 783.862 56.3017 781.156 Q59.9619 778.419 59.9619 773.677 Q59.9619 768.998 56.2698 766.261 Q52.5777 763.523 46.212 763.523 Q39.8781 763.523 36.186 766.261 Q32.4621 768.998 32.4621 773.677 M27.4968 773.677 Q27.4968 766.038 32.4621 761.677 Q37.4273 757.317 46.212 757.317 Q54.9649 757.317 59.9619 761.677 Q64.9272 766.038 64.9272 773.677 Q64.9272 781.347 59.9619 785.708 Q54.9649 790.037 46.212 790.037 Q37.4273 790.037 32.4621 785.708 Q27.4968 781.347 27.4968 773.677 Z" fill="#000000" fill-rule="nonzero" fill-opacity="1" /><path clip-path="url(#clip150)" d="M42.4881 717.977 L64.0042 717.977 L64.0042 723.833 L42.679 723.833 Q37.6183 723.833 35.1038 725.807 Q32.5894 727.78 32.5894 731.727 Q32.5894 736.469 35.6131 739.206 Q38.6368 741.944 43.8567 741.944 L64.0042 741.944 L64.0042 747.832 L28.3562 747.832 L28.3562 741.944 L33.8944 741.944 Q30.6797 739.843 29.0883 737.01 Q27.4968 734.146 27.4968 730.422 Q27.4968 724.279 31.3163 721.128 Q35.1038 717.977 42.4881 717.977 Z" fill="#000000" fill-rule="nonzero" fill-opacity="1" /><path clip-path="url(#clip150)" d="M18.2347 679.783 L28.3562 679.783 L28.3562 667.72 L32.9077 667.72 L32.9077 679.783 L52.2594 679.783 Q56.6199 679.783 57.8613 678.605 Q59.1026 677.395 59.1026 673.735 L59.1026 667.72 L64.0042 667.72 L64.0042 673.735 Q64.0042 680.515 61.4897 683.093 Q58.9434 685.671 52.2594 685.671 L32.9077 685.671 L32.9077 689.968 L28.3562 689.968 L28.3562 685.671 L18.2347 685.671 L18.2347 679.783 Z" fill="#000000" fill-rule="nonzero" fill-opacity="1" /><path clip-path="url(#clip150)" d="M28.3562 660.017 L28.3562 654.161 L64.0042 654.161 L64.0042 660.017 L28.3562 660.017 M14.479 660.017 L14.479 654.161 L21.895 654.161 L21.895 660.017 L14.479 660.017 Z" fill="#000000" fill-rule="nonzero" fill-opacity="1" /><path clip-path="url(#clip150)" d="M35.1993 614.152 Q31.2526 611.956 29.3747 608.9 Q27.4968 605.845 27.4968 601.707 Q27.4968 596.137 31.4117 593.113 Q35.2948 590.09 42.4881 590.09 L64.0042 590.09 L64.0042 595.978 L42.679 595.978 Q37.5546 595.978 35.072 597.792 Q32.5894 599.607 32.5894 603.33 Q32.5894 607.882 35.6131 610.524 Q38.6368 613.165 43.8567 613.165 L64.0042 613.165 L64.0042 619.054 L42.679 619.054 Q37.5228 619.054 35.072 620.868 Q32.5894 622.682 32.5894 626.47 Q32.5894 630.958 35.6449 633.599 Q38.6686 636.241 43.8567 636.241 L64.0042 636.241 L64.0042 642.129 L28.3562 642.129 L28.3562 636.241 L33.8944 636.241 Q30.616 634.236 29.0564 631.435 Q27.4968 628.634 27.4968 624.783 Q27.4968 620.9 29.4702 618.194 Q31.4436 615.457 35.1993 614.152 Z" fill="#000000" fill-rule="nonzero" fill-opacity="1" /><path clip-path="url(#clip150)" d="M44.7161 547.917 L47.5806 547.917 L47.5806 574.844 Q53.6281 574.462 56.8109 571.215 Q59.9619 567.937 59.9619 562.112 Q59.9619 558.739 59.1344 555.588 Q58.3069 552.405 56.6518 549.286 L62.1899 549.286 Q63.5267 552.437 64.227 555.747 Q64.9272 559.057 64.9272 562.463 Q64.9272 570.993 59.9619 575.99 Q54.9967 580.955 46.5303 580.955 Q37.7774 580.955 32.6531 576.244 Q27.4968 571.502 27.4968 563.481 Q27.4968 556.288 32.1438 552.118 Q36.7589 547.917 44.7161 547.917 M42.9973 553.773 Q38.1912 553.837 35.3266 556.479 Q32.4621 559.089 32.4621 563.417 Q32.4621 568.319 35.2312 571.279 Q38.0002 574.207 43.0292 574.653 L42.9973 553.773 Z" fill="#000000" fill-rule="nonzero" fill-opacity="1" /><path clip-path="url(#clip150)" d="M14.5426 503.516 Q21.8632 507.781 29.0246 509.85 Q36.186 511.919 43.5384 511.919 Q50.8908 511.919 58.1159 509.85 Q65.3091 507.749 72.5979 503.516 L72.5979 508.609 Q65.1182 513.383 57.8931 515.77 Q50.668 518.125 43.5384 518.125 Q36.4406 518.125 29.2474 515.77 Q22.0542 513.415 14.5426 508.609 L14.5426 503.516 Z" fill="#000000" fill-rule="nonzero" fill-opacity="1" /><path clip-path="url(#clip150)" d="M29.4065 469.428 L34.9447 469.428 Q33.6716 471.91 33.035 474.584 Q32.3984 477.258 32.3984 480.122 Q32.3984 484.483 33.7352 486.679 Q35.072 488.843 37.7456 488.843 Q39.7826 488.843 40.9603 487.284 Q42.1061 485.724 43.1565 481.013 L43.6021 479.008 Q44.9389 472.77 47.3897 470.16 Q49.8086 467.518 54.1691 467.518 Q59.1344 467.518 62.0308 471.465 Q64.9272 475.38 64.9272 482.255 Q64.9272 485.119 64.3543 488.238 Q63.8132 491.326 62.6992 494.763 L56.6518 494.763 Q58.3387 491.517 59.198 488.366 Q60.0256 485.215 60.0256 482.127 Q60.0256 477.99 58.6251 475.762 Q57.1929 473.534 54.6147 473.534 Q52.2276 473.534 50.9545 475.157 Q49.6813 476.748 48.5037 482.191 L48.0262 484.228 Q46.8804 489.671 44.5251 492.09 Q42.138 494.509 38.0002 494.509 Q32.9713 494.509 30.2341 490.944 Q27.4968 487.379 27.4968 480.822 Q27.4968 477.576 27.9743 474.711 Q28.4517 471.847 29.4065 469.428 Z" fill="#000000" fill-rule="nonzero" fill-opacity="1" /><path clip-path="url(#clip150)" d="M14.5426 459.115 L14.5426 454.023 Q22.0542 449.249 29.2474 446.893 Q36.4406 444.506 43.5384 444.506 Q50.668 444.506 57.8931 446.893 Q65.1182 449.249 72.5979 454.023 L72.5979 459.115 Q65.3091 454.882 58.1159 452.813 Q50.8908 450.713 43.5384 450.713 Q36.186 450.713 29.0246 452.813 Q21.8632 454.882 14.5426 459.115 Z" fill="#000000" fill-rule="nonzero" fill-opacity="1" /><polyline clip-path="url(#clip152)" style="stroke:#009af9; stroke-linecap:round; stroke-linejoin:round; stroke-width:8; stroke-opacity:1; fill:none" points="264.474,68.3268 472.847,268.374 889.592,553.971 1306.34,610.847 1723.08,667.853 "/>
<circle clip-path="url(#clip152)" cx="264.474" cy="68.3268" r="10.8" fill="#009af9" fill-rule="evenodd" fill-opacity="1" stroke="#000000" stroke-opacity="1" stroke-width="3.2"/>
<circle clip-path="url(#clip152)" cx="472.847" cy="268.374" r="10.8" fill="#009af9" fill-rule="evenodd" fill-opacity="1" stroke="#000000" stroke-opacity="1" stroke-width="3.2"/>
<circle clip-path="url(#clip152)" cx="889.592" cy="553.971" r="10.8" fill="#009af9" fill-rule="evenodd" fill-opacity="1" stroke="#000000" stroke-opacity="1" stroke-width="3.2"/>
<circle clip-path="url(#clip152)" cx="1306.34" cy="610.847" r="10.8" fill="#009af9" fill-rule="evenodd" fill-opacity="1" stroke="#000000" stroke-opacity="1" stroke-width="3.2"/>
<circle clip-path="url(#clip152)" cx="1723.08" cy="667.853" r="10.8" fill="#009af9" fill-rule="evenodd" fill-opacity="1" stroke="#000000" stroke-opacity="1" stroke-width="3.2"/>
<polyline clip-path="url(#clip152)" style="stroke:#e26f46; stroke-linecap:round; stroke-linejoin:round; stroke-width:8; stroke-opacity:1; fill:none" points="264.474,536.587 472.847,727.509 889.592,934.056 1306.34,974.961 1723.08,999.149 "/>
<circle clip-path="url(#clip152)" cx="264.474" cy="536.587" r="10.8" fill="#e26f46" fill-rule="evenodd" fill-opacity="1" stroke="#000000" stroke-opacity="1" stroke-width="3.2"/>
<circle clip-path="url(#clip152)" cx="472.847" cy="727.509" r="10.8" fill="#e26f46" fill-rule="evenodd" fill-opacity="1" stroke="#000000" stroke-opacity="1" stroke-width="3.2"/>
<circle clip-path="url(#clip152)" cx="889.592" cy="934.056" r="10.8" fill="#e26f46" fill-rule="evenodd" fill-opacity="1" stroke="#000000" stroke-opacity="1" stroke-width="3.2"/>
<circle clip-path="url(#clip152)" cx="1306.34" cy="974.961" r="10.8" fill="#e26f46" fill-rule="evenodd" fill-opacity="1" stroke="#000000" stroke-opacity="1" stroke-width="3.2"/>
<circle clip-path="url(#clip152)" cx="1723.08" cy="999.149" r="10.8" fill="#e26f46" fill-rule="evenodd" fill-opacity="1" stroke="#000000" stroke-opacity="1" stroke-width="3.2"/>
<polyline clip-path="url(#clip152)" style="stroke:#3da44d; stroke-linecap:round; stroke-linejoin:round; stroke-width:8; stroke-opacity:1; fill:none" points="264.474,225.02 472.847,327.508 889.592,402.523 1306.34,415.853 1723.08,461.718 "/>
<circle clip-path="url(#clip152)" cx="264.474" cy="225.02" r="10.8" fill="#3da44d" fill-rule="evenodd" fill-opacity="1" stroke="#000000" stroke-opacity="1" stroke-width="3.2"/>
<circle clip-path="url(#clip152)" cx="472.847" cy="327.508" r="10.8" fill="#3da44d" fill-rule="evenodd" fill-opacity="1" stroke="#000000" stroke-opacity="1" stroke-width="3.2"/>
<circle clip-path="url(#clip152)" cx="889.592" cy="402.523" r="10.8" fill="#3da44d" fill-rule="evenodd" fill-opacity="1" stroke="#000000" stroke-opacity="1" stroke-width="3.2"/>
<circle clip-path="url(#clip152)" cx="1306.34" cy="415.853" r="10.8" fill="#3da44d" fill-rule="evenodd" fill-opacity="1" stroke="#000000" stroke-opacity="1" stroke-width="3.2"/>
<circle clip-path="url(#clip152)" cx="1723.08" cy="461.718" r="10.8" fill="#3da44d" fill-rule="evenodd" fill-opacity="1" stroke="#000000" stroke-opacity="1" stroke-width="3.2"/>
<polyline clip-path="url(#clip152)" style="stroke:#c271d2; stroke-linecap:round; stroke-linejoin:round; stroke-width:8; stroke-opacity:1; fill:none" points="264.474,446.804 472.847,612.418 889.592,745.328 1306.34,799.911 1723.08,821.066 "/>
<circle clip-path="url(#clip152)" cx="264.474" cy="446.804" r="10.8" fill="#c271d2" fill-rule="evenodd" fill-opacity="1" stroke="#000000" stroke-opacity="1" stroke-width="3.2"/>
<circle clip-path="url(#clip152)" cx="472.847" cy="612.418" r="10.8" fill="#c271d2" fill-rule="evenodd" fill-opacity="1" stroke="#000000" stroke-opacity="1" stroke-width="3.2"/>
<circle clip-path="url(#clip152)" cx="889.592" cy="745.328" r="10.8" fill="#c271d2" fill-rule="evenodd" fill-opacity="1" stroke="#000000" stroke-opacity="1" stroke-width="3.2"/>
<circle clip-path="url(#clip152)" cx="1306.34" cy="799.911" r="10.8" fill="#c271d2" fill-rule="evenodd" fill-opacity="1" stroke="#000000" stroke-opacity="1" stroke-width="3.2"/>
<circle clip-path="url(#clip152)" cx="1723.08" cy="821.066" r="10.8" fill="#c271d2" fill-rule="evenodd" fill-opacity="1" stroke="#000000" stroke-opacity="1" stroke-width="3.2"/>
<polyline clip-path="url(#clip152)" style="stroke:#ac8d18; stroke-linecap:round; stroke-linejoin:round; stroke-width:8; stroke-opacity:1; fill:none" points="264.474,474.975 472.847,648.4 889.592,780.913 1306.34,827.077 1723.08,850.541 "/>
<circle clip-path="url(#clip152)" cx="264.474" cy="474.975" r="10.8" fill="#ac8d18" fill-rule="evenodd" fill-opacity="1" stroke="#000000" stroke-opacity="1" stroke-width="3.2"/>
<circle clip-path="url(#clip152)" cx="472.847" cy="648.4" r="10.8" fill="#ac8d18" fill-rule="evenodd" fill-opacity="1" stroke="#000000" stroke-opacity="1" stroke-width="3.2"/>
<circle clip-path="url(#clip152)" cx="889.592" cy="780.913" r="10.8" fill="#ac8d18" fill-rule="evenodd" fill-opacity="1" stroke="#000000" stroke-opacity="1" stroke-width="3.2"/>
<circle clip-path="url(#clip152)" cx="1306.34" cy="827.077" r="10.8" fill="#ac8d18" fill-rule="evenodd" fill-opacity="1" stroke="#000000" stroke-opacity="1" stroke-width="3.2"/>
<circle clip-path="url(#clip152)" cx="1723.08" cy="850.541" r="10.8" fill="#ac8d18" fill-rule="evenodd" fill-opacity="1" stroke="#000000" stroke-opacity="1" stroke-width="3.2"/>
<polyline clip-path="url(#clip152)" style="stroke:#c271d2; stroke-linecap:round; stroke-linejoin:round; stroke-width:8; stroke-opacity:1; fill:none" points="264.474,1083.11 1723.08,1083.11 "/>
<polyline clip-path="url(#clip152)" style="stroke:#3da44d; stroke-linecap:round; stroke-linejoin:round; stroke-width:8; stroke-opacity:1; fill:none" points="264.474,1265.08 1723.08,1265.08 "/>
<polyline clip-path="url(#clip152)" style="stroke:#ac8d18; stroke-linecap:round; stroke-linejoin:round; stroke-width:8; stroke-opacity:1; fill:none" points="264.474,1335.92 1723.08,1335.92 "/>
<path clip-path="url(#clip150)" d="M1837.91 559.669 L2352.76 559.669 L2352.76 93.1086 L1837.91 93.1086  Z" fill="#000000" fill-rule="evenodd" fill-opacity="0"/>
<polyline clip-path="url(#clip150)" style="stroke:#000000; stroke-linecap:round; stroke-linejoin:round; stroke-width:4; stroke-opacity:0; fill:none" points="1837.91,559.669 2352.76,559.669 2352.76,93.1086 1837.91,93.1086 1837.91,559.669 "/>
<polyline clip-path="url(#clip150)" style="stroke:#009af9; stroke-linecap:round; stroke-linejoin:round; stroke-width:8; stroke-opacity:1; fill:none" points="1861.6,144.949 2003.74,144.949 "/>
<circle clip-path="url(#clip150)" cx="1932.67" cy="144.949" r="19.7411" fill="#009af9" fill-rule="evenodd" fill-opacity="1" stroke="#000000" stroke-opacity="1" stroke-width="5.85143"/>
<path clip-path="url(#clip150)" d="M2043.44 130.84 Q2038.35 130.84 2035.34 134.636 Q2032.36 138.432 2032.36 144.983 Q2032.36 151.511 2035.34 155.307 Q2038.35 159.104 2043.44 159.104 Q2048.54 159.104 2051.5 155.307 Q2054.48 151.511 2054.48 144.983 Q2054.48 138.432 2051.5 134.636 Q2048.54 130.84 2043.44 130.84 M2043.44 127.044 Q2050.71 127.044 2055.06 131.928 Q2059.42 136.789 2059.42 144.983 Q2059.42 153.155 2055.06 158.039 Q2050.71 162.9 2043.44 162.9 Q2036.15 162.9 2031.78 158.039 Q2027.42 153.178 2027.42 144.983 Q2027.42 136.789 2031.78 131.928 Q2036.15 127.044 2043.44 127.044 Z" fill="#000000" fill-rule="nonzero" fill-opacity="1" /><path clip-path="url(#clip150)" d="M2066.73 127.669 L2086.59 127.669 L2086.59 131.604 L2071.41 131.604 L2071.41 141.789 L2085.11 141.789 L2085.11 145.724 L2071.41 145.724 L2071.41 162.229 L2066.73 162.229 L2066.73 127.669 Z" fill="#000000" fill-rule="nonzero" fill-opacity="1" /><path clip-path="url(#clip150)" d="M2095.23 158.293 L2102.86 158.293 L2102.86 131.928 L2094.55 133.595 L2094.55 129.335 L2102.82 127.669 L2107.49 127.669 L2107.49 158.293 L2115.13 158.293 L2115.13 162.229 L2095.23 162.229 L2095.23 158.293 Z" fill="#000000" fill-rule="nonzero" fill-opacity="1" /><path clip-path="url(#clip150)" d="M2125.39 158.293 L2133.03 158.293 L2133.03 131.928 L2124.72 133.595 L2124.72 129.335 L2132.98 127.669 L2137.66 127.669 L2137.66 158.293 L2145.29 158.293 L2145.29 162.229 L2125.39 162.229 L2125.39 158.293 Z" fill="#000000" fill-rule="nonzero" fill-opacity="1" /><path clip-path="url(#clip150)" d="M2190.11 128.803 L2190.11 133.363 Q2187.45 132.09 2185.09 131.465 Q2182.72 130.84 2180.53 130.84 Q2176.71 130.84 2174.62 132.321 Q2172.56 133.803 2172.56 136.534 Q2172.56 138.826 2173.93 140.007 Q2175.32 141.164 2179.16 141.882 L2181.98 142.46 Q2187.22 143.456 2189.69 145.979 Q2192.19 148.479 2192.19 152.692 Q2192.19 157.715 2188.81 160.307 Q2185.46 162.9 2178.95 162.9 Q2176.5 162.9 2173.72 162.344 Q2170.97 161.789 2168 160.701 L2168 155.886 Q2170.85 157.483 2173.58 158.293 Q2176.31 159.104 2178.95 159.104 Q2182.96 159.104 2185.13 157.53 Q2187.31 155.956 2187.31 153.039 Q2187.31 150.493 2185.73 149.057 Q2184.18 147.622 2180.62 146.905 L2177.77 146.349 Q2172.54 145.307 2170.2 143.085 Q2167.86 140.863 2167.86 136.905 Q2167.86 132.321 2171.08 129.682 Q2174.32 127.044 2179.99 127.044 Q2182.42 127.044 2184.95 127.483 Q2187.47 127.923 2190.11 128.803 Z" fill="#000000" fill-rule="nonzero" fill-opacity="1" /><path clip-path="url(#clip150)" d="M2199.3 136.303 L2203.56 136.303 L2203.56 162.229 L2199.3 162.229 L2199.3 136.303 M2199.3 126.21 L2203.56 126.21 L2203.56 131.604 L2199.3 131.604 L2199.3 126.21 Z" fill="#000000" fill-rule="nonzero" fill-opacity="1" /><path clip-path="url(#clip150)" d="M2232.66 141.28 Q2234.25 138.409 2236.47 137.044 Q2238.7 135.678 2241.71 135.678 Q2245.76 135.678 2247.96 138.525 Q2250.15 141.349 2250.15 146.581 L2250.15 162.229 L2245.87 162.229 L2245.87 146.719 Q2245.87 142.993 2244.55 141.187 Q2243.23 139.382 2240.53 139.382 Q2237.22 139.382 2235.29 141.581 Q2233.37 143.78 2233.37 147.576 L2233.37 162.229 L2229.09 162.229 L2229.09 146.719 Q2229.09 142.969 2227.77 141.187 Q2226.45 139.382 2223.7 139.382 Q2220.43 139.382 2218.51 141.604 Q2216.59 143.803 2216.59 147.576 L2216.59 162.229 L2212.31 162.229 L2212.31 136.303 L2216.59 136.303 L2216.59 140.331 Q2218.05 137.946 2220.09 136.812 Q2222.12 135.678 2224.92 135.678 Q2227.75 135.678 2229.72 137.113 Q2231.71 138.548 2232.66 141.28 Z" fill="#000000" fill-rule="nonzero" fill-opacity="1" /><path clip-path="url(#clip150)" d="M2258.65 136.303 L2262.91 136.303 L2262.91 162.229 L2258.65 162.229 L2258.65 136.303 M2258.65 126.21 L2262.91 126.21 L2262.91 131.604 L2258.65 131.604 L2258.65 126.21 Z" fill="#000000" fill-rule="nonzero" fill-opacity="1" /><path clip-path="url(#clip150)" d="M2271.82 126.21 L2276.08 126.21 L2276.08 162.229 L2271.82 162.229 L2271.82 126.21 Z" fill="#000000" fill-rule="nonzero" fill-opacity="1" /><path clip-path="url(#clip150)" d="M2296.78 149.196 Q2291.61 149.196 2289.62 150.377 Q2287.63 151.557 2287.63 154.405 Q2287.63 156.673 2289.11 158.016 Q2290.62 159.335 2293.19 159.335 Q2296.73 159.335 2298.86 156.835 Q2301.01 154.312 2301.01 150.145 L2301.01 149.196 L2296.78 149.196 M2305.27 147.437 L2305.27 162.229 L2301.01 162.229 L2301.01 158.293 Q2299.55 160.655 2297.38 161.789 Q2295.2 162.9 2292.05 162.9 Q2288.07 162.9 2285.71 160.678 Q2283.37 158.432 2283.37 154.682 Q2283.37 150.307 2286.29 148.085 Q2289.23 145.863 2295.04 145.863 L2301.01 145.863 L2301.01 145.446 Q2301.01 142.507 2299.07 140.909 Q2297.15 139.289 2293.65 139.289 Q2291.43 139.289 2289.32 139.821 Q2287.21 140.354 2285.27 141.419 L2285.27 137.483 Q2287.61 136.581 2289.81 136.141 Q2292.01 135.678 2294.09 135.678 Q2299.71 135.678 2302.49 138.594 Q2305.27 141.511 2305.27 147.437 Z" fill="#000000" fill-rule="nonzero" fill-opacity="1" /><path clip-path="url(#clip150)" d="M2329.07 140.284 Q2328.35 139.868 2327.49 139.682 Q2326.66 139.474 2325.64 139.474 Q2322.03 139.474 2320.09 141.835 Q2318.16 144.173 2318.16 148.571 L2318.16 162.229 L2313.88 162.229 L2313.88 136.303 L2318.16 136.303 L2318.16 140.331 Q2319.51 137.969 2321.66 136.835 Q2323.81 135.678 2326.89 135.678 Q2327.33 135.678 2327.86 135.747 Q2328.4 135.794 2329.04 135.909 L2329.07 140.284 Z" fill="#000000" fill-rule="nonzero" fill-opacity="1" /><polyline clip-path="url(#clip150)" style="stroke:#e26f46; stroke-linecap:round; stroke-linejoin:round; stroke-width:8; stroke-opacity:1; fill:none" points="1861.6,196.789 2003.74,196.789 "/>
<circle clip-path="url(#clip150)" cx="1932.67" cy="196.789" r="19.7411" fill="#e26f46" fill-rule="evenodd" fill-opacity="1" stroke="#000000" stroke-opacity="1" stroke-width="5.85143"/>
<path clip-path="url(#clip150)" d="M2043.44 182.68 Q2038.35 182.68 2035.34 186.476 Q2032.36 190.272 2032.36 196.823 Q2032.36 203.351 2035.34 207.147 Q2038.35 210.944 2043.44 210.944 Q2048.54 210.944 2051.5 207.147 Q2054.48 203.351 2054.48 196.823 Q2054.48 190.272 2051.5 186.476 Q2048.54 182.68 2043.44 182.68 M2043.44 178.884 Q2050.71 178.884 2055.06 183.768 Q2059.42 188.629 2059.42 196.823 Q2059.42 204.995 2055.06 209.879 Q2050.71 214.74 2043.44 214.74 Q2036.15 214.74 2031.78 209.879 Q2027.42 205.018 2027.42 196.823 Q2027.42 188.629 2031.78 183.768 Q2036.15 178.884 2043.44 178.884 Z" fill="#000000" fill-rule="nonzero" fill-opacity="1" /><path clip-path="url(#clip150)" d="M2066.73 179.509 L2086.59 179.509 L2086.59 183.444 L2071.41 183.444 L2071.41 193.629 L2085.11 193.629 L2085.11 197.564 L2071.41 197.564 L2071.41 214.069 L2066.73 214.069 L2066.73 179.509 Z" fill="#000000" fill-rule="nonzero" fill-opacity="1" /><path clip-path="url(#clip150)" d="M2095.23 210.133 L2102.86 210.133 L2102.86 183.768 L2094.55 185.435 L2094.55 181.175 L2102.82 179.509 L2107.49 179.509 L2107.49 210.133 L2115.13 210.133 L2115.13 214.069 L2095.23 214.069 L2095.23 210.133 Z" fill="#000000" fill-rule="nonzero" fill-opacity="1" /><path clip-path="url(#clip150)" d="M2125.39 210.133 L2133.03 210.133 L2133.03 183.768 L2124.72 185.435 L2124.72 181.175 L2132.98 179.509 L2137.66 179.509 L2137.66 210.133 L2145.29 210.133 L2145.29 214.069 L2125.39 214.069 L2125.39 210.133 Z" fill="#000000" fill-rule="nonzero" fill-opacity="1" /><path clip-path="url(#clip150)" d="M2174.07 197.564 L2174.07 210.226 L2181.57 210.226 Q2185.34 210.226 2187.15 208.675 Q2188.97 207.101 2188.97 203.883 Q2188.97 200.643 2187.15 199.115 Q2185.34 197.564 2181.57 197.564 L2174.07 197.564 M2174.07 183.351 L2174.07 193.768 L2180.99 193.768 Q2184.41 193.768 2186.08 192.495 Q2187.77 191.198 2187.77 188.559 Q2187.77 185.944 2186.08 184.647 Q2184.41 183.351 2180.99 183.351 L2174.07 183.351 M2169.39 179.509 L2181.34 179.509 Q2186.68 179.509 2189.58 181.731 Q2192.47 183.953 2192.47 188.05 Q2192.47 191.222 2190.99 193.097 Q2189.51 194.971 2186.64 195.434 Q2190.09 196.175 2191.98 198.536 Q2193.91 200.874 2193.91 204.393 Q2193.91 209.022 2190.76 211.545 Q2187.61 214.069 2181.8 214.069 L2169.39 214.069 L2169.39 179.509 Z" fill="#000000" fill-rule="nonzero" fill-opacity="1" /><path clip-path="url(#clip150)" d="M2223.91 200.041 L2223.91 202.124 L2204.32 202.124 Q2204.6 206.522 2206.96 208.837 Q2209.34 211.129 2213.58 211.129 Q2216.03 211.129 2218.33 210.527 Q2220.64 209.925 2222.91 208.721 L2222.91 212.749 Q2220.62 213.721 2218.21 214.231 Q2215.8 214.74 2213.33 214.74 Q2207.12 214.74 2203.49 211.129 Q2199.88 207.518 2199.88 201.36 Q2199.88 194.995 2203.3 191.268 Q2206.75 187.518 2212.59 187.518 Q2217.82 187.518 2220.85 190.897 Q2223.91 194.254 2223.91 200.041 M2219.65 198.791 Q2219.6 195.296 2217.68 193.212 Q2215.78 191.129 2212.63 191.129 Q2209.07 191.129 2206.91 193.143 Q2204.78 195.157 2204.46 198.814 L2219.65 198.791 Z" fill="#000000" fill-rule="nonzero" fill-opacity="1" /><path clip-path="url(#clip150)" d="M2247.42 188.907 L2247.42 192.934 Q2245.62 192.009 2243.67 191.546 Q2241.73 191.083 2239.65 191.083 Q2236.47 191.083 2234.88 192.055 Q2233.3 193.027 2233.3 194.971 Q2233.3 196.453 2234.44 197.309 Q2235.57 198.143 2239 198.907 L2240.46 199.231 Q2244.99 200.203 2246.89 201.985 Q2248.81 203.745 2248.81 206.916 Q2248.81 210.527 2245.94 212.633 Q2243.09 214.74 2238.09 214.74 Q2236.01 214.74 2233.74 214.323 Q2231.5 213.93 2229 213.12 L2229 208.721 Q2231.36 209.948 2233.65 210.573 Q2235.94 211.175 2238.19 211.175 Q2241.2 211.175 2242.82 210.157 Q2244.44 209.115 2244.44 207.24 Q2244.44 205.504 2243.26 204.578 Q2242.1 203.652 2238.14 202.796 L2236.66 202.448 Q2232.7 201.615 2230.94 199.902 Q2229.18 198.166 2229.18 195.157 Q2229.18 191.499 2231.78 189.509 Q2234.37 187.518 2239.14 187.518 Q2241.5 187.518 2243.58 187.865 Q2245.66 188.212 2247.42 188.907 Z" fill="#000000" fill-rule="nonzero" fill-opacity="1" /><path clip-path="url(#clip150)" d="M2259.81 180.782 L2259.81 188.143 L2268.58 188.143 L2268.58 191.453 L2259.81 191.453 L2259.81 205.527 Q2259.81 208.698 2260.66 209.601 Q2261.54 210.504 2264.21 210.504 L2268.58 210.504 L2268.58 214.069 L2264.21 214.069 Q2259.28 214.069 2257.4 212.24 Q2255.53 210.388 2255.53 205.527 L2255.53 191.453 L2252.4 191.453 L2252.4 188.143 L2255.53 188.143 L2255.53 180.782 L2259.81 180.782 Z" fill="#000000" fill-rule="nonzero" fill-opacity="1" /><polyline clip-path="url(#clip150)" style="stroke:#3da44d; stroke-linecap:round; stroke-linejoin:round; stroke-width:8; stroke-opacity:1; fill:none" points="1861.6,248.629 2003.74,248.629 "/>
<circle clip-path="url(#clip150)" cx="1932.67" cy="248.629" r="19.7411" fill="#3da44d" fill-rule="evenodd" fill-opacity="1" stroke="#000000" stroke-opacity="1" stroke-width="5.85143"/>
<path clip-path="url(#clip150)" d="M2027.42 239.983 L2031.94 239.983 L2040.04 261.742 L2048.14 239.983 L2052.66 239.983 L2042.93 265.909 L2037.15 265.909 L2027.42 239.983 Z" fill="#000000" fill-rule="nonzero" fill-opacity="1" /><path clip-path="url(#clip150)" d="M2069.14 234.427 Q2065.53 234.427 2063.7 237.992 Q2061.89 241.534 2061.89 248.663 Q2061.89 255.77 2063.7 259.335 Q2065.53 262.876 2069.14 262.876 Q2072.77 262.876 2074.58 259.335 Q2076.41 255.77 2076.41 248.663 Q2076.41 241.534 2074.58 237.992 Q2072.77 234.427 2069.14 234.427 M2069.14 230.724 Q2074.95 230.724 2078 235.33 Q2081.08 239.913 2081.08 248.663 Q2081.08 257.39 2078 261.997 Q2074.95 266.58 2069.14 266.58 Q2063.33 266.58 2060.25 261.997 Q2057.19 257.39 2057.19 248.663 Q2057.19 239.913 2060.25 235.33 Q2063.33 230.724 2069.14 230.724 Z" fill="#000000" fill-rule="nonzero" fill-opacity="1" /><path clip-path="url(#clip150)" d="M2089.3 260.029 L2094.18 260.029 L2094.18 265.909 L2089.3 265.909 L2089.3 260.029 Z" fill="#000000" fill-rule="nonzero" fill-opacity="1" /><path clip-path="url(#clip150)" d="M2118.54 247.274 Q2121.89 247.992 2123.77 250.261 Q2125.66 252.529 2125.66 255.862 Q2125.66 260.978 2122.15 263.779 Q2118.63 266.58 2112.15 266.58 Q2109.97 266.58 2107.66 266.14 Q2105.36 265.723 2102.91 264.867 L2102.91 260.353 Q2104.85 261.487 2107.17 262.066 Q2109.48 262.645 2112.01 262.645 Q2116.41 262.645 2118.7 260.909 Q2121.01 259.173 2121.01 255.862 Q2121.01 252.807 2118.86 251.094 Q2116.73 249.358 2112.91 249.358 L2108.88 249.358 L2108.88 245.515 L2113.1 245.515 Q2116.54 245.515 2118.37 244.149 Q2120.2 242.761 2120.2 240.168 Q2120.2 237.506 2118.3 236.094 Q2116.43 234.659 2112.91 234.659 Q2110.99 234.659 2108.79 235.075 Q2106.59 235.492 2103.95 236.372 L2103.95 232.205 Q2106.61 231.464 2108.93 231.094 Q2111.27 230.724 2113.33 230.724 Q2118.65 230.724 2121.75 233.154 Q2124.85 235.562 2124.85 239.682 Q2124.85 242.552 2123.21 244.543 Q2121.57 246.511 2118.54 247.274 Z" fill="#000000" fill-rule="nonzero" fill-opacity="1" /><path clip-path="url(#clip150)" d="M2134.53 260.029 L2139.41 260.029 L2139.41 265.909 L2134.53 265.909 L2134.53 260.029 Z" fill="#000000" fill-rule="nonzero" fill-opacity="1" /><path clip-path="url(#clip150)" d="M2153.63 261.973 L2169.95 261.973 L2169.95 265.909 L2148 265.909 L2148 261.973 Q2150.66 259.219 2155.25 254.589 Q2159.85 249.936 2161.04 248.594 Q2163.28 246.071 2164.16 244.335 Q2165.06 242.575 2165.06 240.886 Q2165.06 238.131 2163.12 236.395 Q2161.2 234.659 2158.1 234.659 Q2155.9 234.659 2153.44 235.423 Q2151.01 236.187 2148.23 237.737 L2148.23 233.015 Q2151.06 231.881 2153.51 231.302 Q2155.97 230.724 2158 230.724 Q2163.37 230.724 2166.57 233.409 Q2169.76 236.094 2169.76 240.585 Q2169.76 242.714 2168.95 244.636 Q2168.16 246.534 2166.06 249.126 Q2165.48 249.798 2162.38 253.015 Q2159.28 256.21 2153.63 261.973 Z" fill="#000000" fill-rule="nonzero" fill-opacity="1" /><polyline clip-path="url(#clip150)" style="stroke:#c271d2; stroke-linecap:round; stroke-linejoin:round; stroke-width:8; stroke-opacity:1; fill:none" points="1861.6,300.469 2003.74,300.469 "/>
<circle clip-path="url(#clip150)" cx="1932.67" cy="300.469" r="19.7411" fill="#c271d2" fill-rule="evenodd" fill-opacity="1" stroke="#000000" stroke-opacity="1" stroke-width="5.85143"/>
<path clip-path="url(#clip150)" d="M2027.42 291.823 L2031.94 291.823 L2040.04 313.582 L2048.14 291.823 L2052.66 291.823 L2042.93 317.749 L2037.15 317.749 L2027.42 291.823 Z" fill="#000000" fill-rule="nonzero" fill-opacity="1" /><path clip-path="url(#clip150)" d="M2069.14 286.267 Q2065.53 286.267 2063.7 289.832 Q2061.89 293.374 2061.89 300.503 Q2061.89 307.61 2063.7 311.175 Q2065.53 314.716 2069.14 314.716 Q2072.77 314.716 2074.58 311.175 Q2076.41 307.61 2076.41 300.503 Q2076.41 293.374 2074.58 289.832 Q2072.77 286.267 2069.14 286.267 M2069.14 282.564 Q2074.95 282.564 2078 287.17 Q2081.08 291.753 2081.08 300.503 Q2081.08 309.23 2078 313.837 Q2074.95 318.42 2069.14 318.42 Q2063.33 318.42 2060.25 313.837 Q2057.19 309.23 2057.19 300.503 Q2057.19 291.753 2060.25 287.17 Q2063.33 282.564 2069.14 282.564 Z" fill="#000000" fill-rule="nonzero" fill-opacity="1" /><path clip-path="url(#clip150)" d="M2089.3 311.869 L2094.18 311.869 L2094.18 317.749 L2089.3 317.749 L2089.3 311.869 Z" fill="#000000" fill-rule="nonzero" fill-opacity="1" /><path clip-path="url(#clip150)" d="M2118.54 299.114 Q2121.89 299.832 2123.77 302.101 Q2125.66 304.369 2125.66 307.702 Q2125.66 312.818 2122.15 315.619 Q2118.63 318.42 2112.15 318.42 Q2109.97 318.42 2107.66 317.98 Q2105.36 317.563 2102.91 316.707 L2102.91 312.193 Q2104.85 313.327 2107.17 313.906 Q2109.48 314.485 2112.01 314.485 Q2116.41 314.485 2118.7 312.749 Q2121.01 311.013 2121.01 307.702 Q2121.01 304.647 2118.86 302.934 Q2116.73 301.198 2112.91 301.198 L2108.88 301.198 L2108.88 297.355 L2113.1 297.355 Q2116.54 297.355 2118.37 295.989 Q2120.2 294.601 2120.2 292.008 Q2120.2 289.346 2118.3 287.934 Q2116.43 286.499 2112.91 286.499 Q2110.99 286.499 2108.79 286.915 Q2106.59 287.332 2103.95 288.212 L2103.95 284.045 Q2106.61 283.304 2108.93 282.934 Q2111.27 282.564 2113.33 282.564 Q2118.65 282.564 2121.75 284.994 Q2124.85 287.402 2124.85 291.522 Q2124.85 294.392 2123.21 296.383 Q2121.57 298.351 2118.54 299.114 Z" fill="#000000" fill-rule="nonzero" fill-opacity="1" /><path clip-path="url(#clip150)" d="M2134.53 311.869 L2139.41 311.869 L2139.41 317.749 L2134.53 317.749 L2134.53 311.869 Z" fill="#000000" fill-rule="nonzero" fill-opacity="1" /><path clip-path="url(#clip150)" d="M2163.77 299.114 Q2167.12 299.832 2169 302.101 Q2170.9 304.369 2170.9 307.702 Q2170.9 312.818 2167.38 315.619 Q2163.86 318.42 2157.38 318.42 Q2155.2 318.42 2152.89 317.98 Q2150.6 317.563 2148.14 316.707 L2148.14 312.193 Q2150.09 313.327 2152.4 313.906 Q2154.72 314.485 2157.24 314.485 Q2161.64 314.485 2163.93 312.749 Q2166.24 311.013 2166.24 307.702 Q2166.24 304.647 2164.09 302.934 Q2161.96 301.198 2158.14 301.198 L2154.11 301.198 L2154.11 297.355 L2158.33 297.355 Q2161.78 297.355 2163.6 295.989 Q2165.43 294.601 2165.43 292.008 Q2165.43 289.346 2163.54 287.934 Q2161.66 286.499 2158.14 286.499 Q2156.22 286.499 2154.02 286.915 Q2151.82 287.332 2149.18 288.212 L2149.18 284.045 Q2151.85 283.304 2154.16 282.934 Q2156.5 282.564 2158.56 282.564 Q2163.88 282.564 2166.98 284.994 Q2170.09 287.402 2170.09 291.522 Q2170.09 294.392 2168.44 296.383 Q2166.8 298.351 2163.77 299.114 Z" fill="#000000" fill-rule="nonzero" fill-opacity="1" /><polyline clip-path="url(#clip150)" style="stroke:#ac8d18; stroke-linecap:round; stroke-linejoin:round; stroke-width:8; stroke-opacity:1; fill:none" points="1861.6,352.309 2003.74,352.309 "/>
<circle clip-path="url(#clip150)" cx="1932.67" cy="352.309" r="19.7411" fill="#ac8d18" fill-rule="evenodd" fill-opacity="1" stroke="#000000" stroke-opacity="1" stroke-width="5.85143"/>
<path clip-path="url(#clip150)" d="M2027.42 343.663 L2031.94 343.663 L2040.04 365.422 L2048.14 343.663 L2052.66 343.663 L2042.93 369.589 L2037.15 369.589 L2027.42 343.663 Z" fill="#000000" fill-rule="nonzero" fill-opacity="1" /><path clip-path="url(#clip150)" d="M2069.14 338.107 Q2065.53 338.107 2063.7 341.672 Q2061.89 345.214 2061.89 352.343 Q2061.89 359.45 2063.7 363.015 Q2065.53 366.556 2069.14 366.556 Q2072.77 366.556 2074.58 363.015 Q2076.41 359.45 2076.41 352.343 Q2076.41 345.214 2074.58 341.672 Q2072.77 338.107 2069.14 338.107 M2069.14 334.404 Q2074.95 334.404 2078 339.01 Q2081.08 343.593 2081.08 352.343 Q2081.08 361.07 2078 365.677 Q2074.95 370.26 2069.14 370.26 Q2063.33 370.26 2060.25 365.677 Q2057.19 361.07 2057.19 352.343 Q2057.19 343.593 2060.25 339.01 Q2063.33 334.404 2069.14 334.404 Z" fill="#000000" fill-rule="nonzero" fill-opacity="1" /><path clip-path="url(#clip150)" d="M2089.3 363.709 L2094.18 363.709 L2094.18 369.589 L2089.3 369.589 L2089.3 363.709 Z" fill="#000000" fill-rule="nonzero" fill-opacity="1" /><path clip-path="url(#clip150)" d="M2104.41 335.029 L2122.77 335.029 L2122.77 338.964 L2108.7 338.964 L2108.7 347.436 Q2109.72 347.089 2110.73 346.927 Q2111.75 346.742 2112.77 346.742 Q2118.56 346.742 2121.94 349.913 Q2125.32 353.084 2125.32 358.501 Q2125.32 364.079 2121.85 367.181 Q2118.37 370.26 2112.05 370.26 Q2109.88 370.26 2107.61 369.89 Q2105.36 369.519 2102.96 368.778 L2102.96 364.079 Q2105.04 365.214 2107.26 365.769 Q2109.48 366.325 2111.96 366.325 Q2115.97 366.325 2118.3 364.218 Q2120.64 362.112 2120.64 358.501 Q2120.64 354.89 2118.3 352.783 Q2115.97 350.677 2111.96 350.677 Q2110.09 350.677 2108.21 351.093 Q2106.36 351.51 2104.41 352.39 L2104.41 335.029 Z" fill="#000000" fill-rule="nonzero" fill-opacity="1" /><path clip-path="url(#clip150)" d="M2134.53 363.709 L2139.41 363.709 L2139.41 369.589 L2134.53 369.589 L2134.53 363.709 Z" fill="#000000" fill-rule="nonzero" fill-opacity="1" /><path clip-path="url(#clip150)" d="M2159.6 338.107 Q2155.99 338.107 2154.16 341.672 Q2152.35 345.214 2152.35 352.343 Q2152.35 359.45 2154.16 363.015 Q2155.99 366.556 2159.6 366.556 Q2163.23 366.556 2165.04 363.015 Q2166.87 359.45 2166.87 352.343 Q2166.87 345.214 2165.04 341.672 Q2163.23 338.107 2159.6 338.107 M2159.6 334.404 Q2165.41 334.404 2168.47 339.01 Q2171.54 343.593 2171.54 352.343 Q2171.54 361.07 2168.47 365.677 Q2165.41 370.26 2159.6 370.26 Q2153.79 370.26 2150.71 365.677 Q2147.66 361.07 2147.66 352.343 Q2147.66 343.593 2150.71 339.01 Q2153.79 334.404 2159.6 334.404 Z" fill="#000000" fill-rule="nonzero" fill-opacity="1" /><polyline clip-path="url(#clip150)" style="stroke:#c271d2; stroke-linecap:round; stroke-linejoin:round; stroke-width:8; stroke-opacity:1; fill:none" points="1861.6,404.149 2003.74,404.149 "/>
<path clip-path="url(#clip150)" d="M2027.42 395.503 L2031.94 395.503 L2040.04 417.262 L2048.14 395.503 L2052.66 395.503 L2042.93 421.429 L2037.15 421.429 L2027.42 395.503 Z" fill="#000000" fill-rule="nonzero" fill-opacity="1" /><path clip-path="url(#clip150)" d="M2069.14 389.947 Q2065.53 389.947 2063.7 393.512 Q2061.89 397.054 2061.89 404.183 Q2061.89 411.29 2063.7 414.855 Q2065.53 418.396 2069.14 418.396 Q2072.77 418.396 2074.58 414.855 Q2076.41 411.29 2076.41 404.183 Q2076.41 397.054 2074.58 393.512 Q2072.77 389.947 2069.14 389.947 M2069.14 386.244 Q2074.95 386.244 2078 390.85 Q2081.08 395.433 2081.08 404.183 Q2081.08 412.91 2078 417.517 Q2074.95 422.1 2069.14 422.1 Q2063.33 422.1 2060.25 417.517 Q2057.19 412.91 2057.19 404.183 Q2057.19 395.433 2060.25 390.85 Q2063.33 386.244 2069.14 386.244 Z" fill="#000000" fill-rule="nonzero" fill-opacity="1" /><path clip-path="url(#clip150)" d="M2089.3 415.549 L2094.18 415.549 L2094.18 421.429 L2089.3 421.429 L2089.3 415.549 Z" fill="#000000" fill-rule="nonzero" fill-opacity="1" /><path clip-path="url(#clip150)" d="M2118.54 402.794 Q2121.89 403.512 2123.77 405.781 Q2125.66 408.049 2125.66 411.382 Q2125.66 416.498 2122.15 419.299 Q2118.63 422.1 2112.15 422.1 Q2109.97 422.1 2107.66 421.66 Q2105.36 421.243 2102.91 420.387 L2102.91 415.873 Q2104.85 417.007 2107.17 417.586 Q2109.48 418.165 2112.01 418.165 Q2116.41 418.165 2118.7 416.429 Q2121.01 414.693 2121.01 411.382 Q2121.01 408.327 2118.86 406.614 Q2116.73 404.878 2112.91 404.878 L2108.88 404.878 L2108.88 401.035 L2113.1 401.035 Q2116.54 401.035 2118.37 399.669 Q2120.2 398.281 2120.2 395.688 Q2120.2 393.026 2118.3 391.614 Q2116.43 390.179 2112.91 390.179 Q2110.99 390.179 2108.79 390.595 Q2106.59 391.012 2103.95 391.892 L2103.95 387.725 Q2106.61 386.984 2108.93 386.614 Q2111.27 386.244 2113.33 386.244 Q2118.65 386.244 2121.75 388.674 Q2124.85 391.082 2124.85 395.202 Q2124.85 398.072 2123.21 400.063 Q2121.57 402.031 2118.54 402.794 Z" fill="#000000" fill-rule="nonzero" fill-opacity="1" /><path clip-path="url(#clip150)" d="M2134.53 415.549 L2139.41 415.549 L2139.41 421.429 L2134.53 421.429 L2134.53 415.549 Z" fill="#000000" fill-rule="nonzero" fill-opacity="1" /><path clip-path="url(#clip150)" d="M2153.63 417.493 L2169.95 417.493 L2169.95 421.429 L2148 421.429 L2148 417.493 Q2150.66 414.739 2155.25 410.109 Q2159.85 405.456 2161.04 404.114 Q2163.28 401.591 2164.16 399.855 Q2165.06 398.095 2165.06 396.406 Q2165.06 393.651 2163.12 391.915 Q2161.2 390.179 2158.1 390.179 Q2155.9 390.179 2153.44 390.943 Q2151.01 391.707 2148.23 393.257 L2148.23 388.535 Q2151.06 387.401 2153.51 386.822 Q2155.97 386.244 2158 386.244 Q2163.37 386.244 2166.57 388.929 Q2169.76 391.614 2169.76 396.105 Q2169.76 398.234 2168.95 400.156 Q2168.16 402.054 2166.06 404.646 Q2165.48 405.318 2162.38 408.535 Q2159.28 411.73 2153.63 417.493 Z" fill="#000000" fill-rule="nonzero" fill-opacity="1" /><path clip-path="url(#clip150)" d="M2217.98 416.498 L2217.98 407.216 L2210.34 407.216 L2210.34 403.373 L2222.61 403.373 L2222.61 418.211 Q2219.9 420.132 2216.64 421.128 Q2213.37 422.1 2209.67 422.1 Q2201.57 422.1 2196.98 417.378 Q2192.42 412.632 2192.42 404.183 Q2192.42 395.711 2196.98 390.989 Q2201.57 386.244 2209.67 386.244 Q2213.05 386.244 2216.08 387.077 Q2219.14 387.91 2221.71 389.531 L2221.71 394.507 Q2219.11 392.308 2216.2 391.197 Q2213.28 390.086 2210.06 390.086 Q2203.72 390.086 2200.53 393.628 Q2197.35 397.169 2197.35 404.183 Q2197.35 411.174 2200.53 414.716 Q2203.72 418.257 2210.06 418.257 Q2212.54 418.257 2214.48 417.841 Q2216.43 417.401 2217.98 416.498 Z" fill="#000000" fill-rule="nonzero" fill-opacity="1" /><path clip-path="url(#clip150)" d="M2235.83 390.711 L2235.83 403.697 L2241.71 403.697 Q2244.97 403.697 2246.75 402.007 Q2248.53 400.318 2248.53 397.193 Q2248.53 394.091 2246.75 392.401 Q2244.97 390.711 2241.71 390.711 L2235.83 390.711 M2231.15 386.869 L2241.71 386.869 Q2247.52 386.869 2250.48 389.507 Q2253.47 392.123 2253.47 397.193 Q2253.47 402.308 2250.48 404.924 Q2247.52 407.54 2241.71 407.54 L2235.83 407.54 L2235.83 421.429 L2231.15 421.429 L2231.15 386.869 Z" fill="#000000" fill-rule="nonzero" fill-opacity="1" /><path clip-path="url(#clip150)" d="M2259.21 386.869 L2263.9 386.869 L2263.9 407.864 Q2263.9 413.419 2265.92 415.873 Q2267.93 418.304 2272.45 418.304 Q2276.94 418.304 2278.95 415.873 Q2280.96 413.419 2280.96 407.864 L2280.96 386.869 L2285.66 386.869 L2285.66 408.443 Q2285.66 415.202 2282.31 418.651 Q2278.97 422.1 2272.45 422.1 Q2265.9 422.1 2262.54 418.651 Q2259.21 415.202 2259.21 408.443 L2259.21 386.869 Z" fill="#000000" fill-rule="nonzero" fill-opacity="1" /><polyline clip-path="url(#clip150)" style="stroke:#3da44d; stroke-linecap:round; stroke-linejoin:round; stroke-width:8; stroke-opacity:1; fill:none" points="1861.6,455.989 2003.74,455.989 "/>
<path clip-path="url(#clip150)" d="M2027.42 447.343 L2031.94 447.343 L2040.04 469.102 L2048.14 447.343 L2052.66 447.343 L2042.93 473.269 L2037.15 473.269 L2027.42 447.343 Z" fill="#000000" fill-rule="nonzero" fill-opacity="1" /><path clip-path="url(#clip150)" d="M2069.14 441.787 Q2065.53 441.787 2063.7 445.352 Q2061.89 448.894 2061.89 456.023 Q2061.89 463.13 2063.7 466.695 Q2065.53 470.236 2069.14 470.236 Q2072.77 470.236 2074.58 466.695 Q2076.41 463.13 2076.41 456.023 Q2076.41 448.894 2074.58 445.352 Q2072.77 441.787 2069.14 441.787 M2069.14 438.084 Q2074.95 438.084 2078 442.69 Q2081.08 447.273 2081.08 456.023 Q2081.08 464.75 2078 469.357 Q2074.95 473.94 2069.14 473.94 Q2063.33 473.94 2060.25 469.357 Q2057.19 464.75 2057.19 456.023 Q2057.19 447.273 2060.25 442.69 Q2063.33 438.084 2069.14 438.084 Z" fill="#000000" fill-rule="nonzero" fill-opacity="1" /><path clip-path="url(#clip150)" d="M2089.3 467.389 L2094.18 467.389 L2094.18 473.269 L2089.3 473.269 L2089.3 467.389 Z" fill="#000000" fill-rule="nonzero" fill-opacity="1" /><path clip-path="url(#clip150)" d="M2118.54 454.634 Q2121.89 455.352 2123.77 457.621 Q2125.66 459.889 2125.66 463.222 Q2125.66 468.338 2122.15 471.139 Q2118.63 473.94 2112.15 473.94 Q2109.97 473.94 2107.66 473.5 Q2105.36 473.083 2102.91 472.227 L2102.91 467.713 Q2104.85 468.847 2107.17 469.426 Q2109.48 470.005 2112.01 470.005 Q2116.41 470.005 2118.7 468.269 Q2121.01 466.533 2121.01 463.222 Q2121.01 460.167 2118.86 458.454 Q2116.73 456.718 2112.91 456.718 L2108.88 456.718 L2108.88 452.875 L2113.1 452.875 Q2116.54 452.875 2118.37 451.509 Q2120.2 450.121 2120.2 447.528 Q2120.2 444.866 2118.3 443.454 Q2116.43 442.019 2112.91 442.019 Q2110.99 442.019 2108.79 442.435 Q2106.59 442.852 2103.95 443.732 L2103.95 439.565 Q2106.61 438.824 2108.93 438.454 Q2111.27 438.084 2113.33 438.084 Q2118.65 438.084 2121.75 440.514 Q2124.85 442.922 2124.85 447.042 Q2124.85 449.912 2123.21 451.903 Q2121.57 453.871 2118.54 454.634 Z" fill="#000000" fill-rule="nonzero" fill-opacity="1" /><path clip-path="url(#clip150)" d="M2134.53 467.389 L2139.41 467.389 L2139.41 473.269 L2134.53 473.269 L2134.53 467.389 Z" fill="#000000" fill-rule="nonzero" fill-opacity="1" /><path clip-path="url(#clip150)" d="M2163.77 454.634 Q2167.12 455.352 2169 457.621 Q2170.9 459.889 2170.9 463.222 Q2170.9 468.338 2167.38 471.139 Q2163.86 473.94 2157.38 473.94 Q2155.2 473.94 2152.89 473.5 Q2150.6 473.083 2148.14 472.227 L2148.14 467.713 Q2150.09 468.847 2152.4 469.426 Q2154.72 470.005 2157.24 470.005 Q2161.64 470.005 2163.93 468.269 Q2166.24 466.533 2166.24 463.222 Q2166.24 460.167 2164.09 458.454 Q2161.96 456.718 2158.14 456.718 L2154.11 456.718 L2154.11 452.875 L2158.33 452.875 Q2161.78 452.875 2163.6 451.509 Q2165.43 450.121 2165.43 447.528 Q2165.43 444.866 2163.54 443.454 Q2161.66 442.019 2158.14 442.019 Q2156.22 442.019 2154.02 442.435 Q2151.82 442.852 2149.18 443.732 L2149.18 439.565 Q2151.85 438.824 2154.16 438.454 Q2156.5 438.084 2158.56 438.084 Q2163.88 438.084 2166.98 440.514 Q2170.09 442.922 2170.09 447.042 Q2170.09 449.912 2168.44 451.903 Q2166.8 453.871 2163.77 454.634 Z" fill="#000000" fill-rule="nonzero" fill-opacity="1" /><path clip-path="url(#clip150)" d="M2217.98 468.338 L2217.98 459.056 L2210.34 459.056 L2210.34 455.213 L2222.61 455.213 L2222.61 470.051 Q2219.9 471.972 2216.64 472.968 Q2213.37 473.94 2209.67 473.94 Q2201.57 473.94 2196.98 469.218 Q2192.42 464.472 2192.42 456.023 Q2192.42 447.551 2196.98 442.829 Q2201.57 438.084 2209.67 438.084 Q2213.05 438.084 2216.08 438.917 Q2219.14 439.75 2221.71 441.371 L2221.71 446.347 Q2219.11 444.148 2216.2 443.037 Q2213.28 441.926 2210.06 441.926 Q2203.72 441.926 2200.53 445.468 Q2197.35 449.009 2197.35 456.023 Q2197.35 463.014 2200.53 466.556 Q2203.72 470.097 2210.06 470.097 Q2212.54 470.097 2214.48 469.681 Q2216.43 469.241 2217.98 468.338 Z" fill="#000000" fill-rule="nonzero" fill-opacity="1" /><path clip-path="url(#clip150)" d="M2235.83 442.551 L2235.83 455.537 L2241.71 455.537 Q2244.97 455.537 2246.75 453.847 Q2248.53 452.158 2248.53 449.033 Q2248.53 445.931 2246.75 444.241 Q2244.97 442.551 2241.71 442.551 L2235.83 442.551 M2231.15 438.709 L2241.71 438.709 Q2247.52 438.709 2250.48 441.347 Q2253.47 443.963 2253.47 449.033 Q2253.47 454.148 2250.48 456.764 Q2247.52 459.38 2241.71 459.38 L2235.83 459.38 L2235.83 473.269 L2231.15 473.269 L2231.15 438.709 Z" fill="#000000" fill-rule="nonzero" fill-opacity="1" /><path clip-path="url(#clip150)" d="M2259.21 438.709 L2263.9 438.709 L2263.9 459.704 Q2263.9 465.259 2265.92 467.713 Q2267.93 470.144 2272.45 470.144 Q2276.94 470.144 2278.95 467.713 Q2280.96 465.259 2280.96 459.704 L2280.96 438.709 L2285.66 438.709 L2285.66 460.283 Q2285.66 467.042 2282.31 470.491 Q2278.97 473.94 2272.45 473.94 Q2265.9 473.94 2262.54 470.491 Q2259.21 467.042 2259.21 460.283 L2259.21 438.709 Z" fill="#000000" fill-rule="nonzero" fill-opacity="1" /><polyline clip-path="url(#clip150)" style="stroke:#ac8d18; stroke-linecap:round; stroke-linejoin:round; stroke-width:8; stroke-opacity:1; fill:none" points="1861.6,507.829 2003.74,507.829 "/>
<path clip-path="url(#clip150)" d="M2027.42 499.183 L2031.94 499.183 L2040.04 520.942 L2048.14 499.183 L2052.66 499.183 L2042.93 525.109 L2037.15 525.109 L2027.42 499.183 Z" fill="#000000" fill-rule="nonzero" fill-opacity="1" /><path clip-path="url(#clip150)" d="M2069.14 493.627 Q2065.53 493.627 2063.7 497.192 Q2061.89 500.734 2061.89 507.863 Q2061.89 514.97 2063.7 518.535 Q2065.53 522.076 2069.14 522.076 Q2072.77 522.076 2074.58 518.535 Q2076.41 514.97 2076.41 507.863 Q2076.41 500.734 2074.58 497.192 Q2072.77 493.627 2069.14 493.627 M2069.14 489.924 Q2074.95 489.924 2078 494.53 Q2081.08 499.113 2081.08 507.863 Q2081.08 516.59 2078 521.197 Q2074.95 525.78 2069.14 525.78 Q2063.33 525.78 2060.25 521.197 Q2057.19 516.59 2057.19 507.863 Q2057.19 499.113 2060.25 494.53 Q2063.33 489.924 2069.14 489.924 Z" fill="#000000" fill-rule="nonzero" fill-opacity="1" /><path clip-path="url(#clip150)" d="M2089.3 519.229 L2094.18 519.229 L2094.18 525.109 L2089.3 525.109 L2089.3 519.229 Z" fill="#000000" fill-rule="nonzero" fill-opacity="1" /><path clip-path="url(#clip150)" d="M2104.41 490.549 L2122.77 490.549 L2122.77 494.484 L2108.7 494.484 L2108.7 502.956 Q2109.72 502.609 2110.73 502.447 Q2111.75 502.262 2112.77 502.262 Q2118.56 502.262 2121.94 505.433 Q2125.32 508.604 2125.32 514.021 Q2125.32 519.599 2121.85 522.701 Q2118.37 525.78 2112.05 525.78 Q2109.88 525.78 2107.61 525.41 Q2105.36 525.039 2102.96 524.298 L2102.96 519.599 Q2105.04 520.734 2107.26 521.289 Q2109.48 521.845 2111.96 521.845 Q2115.97 521.845 2118.3 519.738 Q2120.64 517.632 2120.64 514.021 Q2120.64 510.41 2118.3 508.303 Q2115.97 506.197 2111.96 506.197 Q2110.09 506.197 2108.21 506.613 Q2106.36 507.03 2104.41 507.91 L2104.41 490.549 Z" fill="#000000" fill-rule="nonzero" fill-opacity="1" /><path clip-path="url(#clip150)" d="M2134.53 519.229 L2139.41 519.229 L2139.41 525.109 L2134.53 525.109 L2134.53 519.229 Z" fill="#000000" fill-rule="nonzero" fill-opacity="1" /><path clip-path="url(#clip150)" d="M2159.6 493.627 Q2155.99 493.627 2154.16 497.192 Q2152.35 500.734 2152.35 507.863 Q2152.35 514.97 2154.16 518.535 Q2155.99 522.076 2159.6 522.076 Q2163.23 522.076 2165.04 518.535 Q2166.87 514.97 2166.87 507.863 Q2166.87 500.734 2165.04 497.192 Q2163.23 493.627 2159.6 493.627 M2159.6 489.924 Q2165.41 489.924 2168.47 494.53 Q2171.54 499.113 2171.54 507.863 Q2171.54 516.59 2168.47 521.197 Q2165.41 525.78 2159.6 525.78 Q2153.79 525.78 2150.71 521.197 Q2147.66 516.59 2147.66 507.863 Q2147.66 499.113 2150.71 494.53 Q2153.79 489.924 2159.6 489.924 Z" fill="#000000" fill-rule="nonzero" fill-opacity="1" /><path clip-path="url(#clip150)" d="M2217.98 520.178 L2217.98 510.896 L2210.34 510.896 L2210.34 507.053 L2222.61 507.053 L2222.61 521.891 Q2219.9 523.812 2216.64 524.808 Q2213.37 525.78 2209.67 525.78 Q2201.57 525.78 2196.98 521.058 Q2192.42 516.312 2192.42 507.863 Q2192.42 499.391 2196.98 494.669 Q2201.57 489.924 2209.67 489.924 Q2213.05 489.924 2216.08 490.757 Q2219.14 491.59 2221.71 493.211 L2221.71 498.187 Q2219.11 495.988 2216.2 494.877 Q2213.28 493.766 2210.06 493.766 Q2203.72 493.766 2200.53 497.308 Q2197.35 500.849 2197.35 507.863 Q2197.35 514.854 2200.53 518.396 Q2203.72 521.937 2210.06 521.937 Q2212.54 521.937 2214.48 521.521 Q2216.43 521.081 2217.98 520.178 Z" fill="#000000" fill-rule="nonzero" fill-opacity="1" /><path clip-path="url(#clip150)" d="M2235.83 494.391 L2235.83 507.377 L2241.71 507.377 Q2244.97 507.377 2246.75 505.687 Q2248.53 503.998 2248.53 500.873 Q2248.53 497.771 2246.75 496.081 Q2244.97 494.391 2241.71 494.391 L2235.83 494.391 M2231.15 490.549 L2241.71 490.549 Q2247.52 490.549 2250.48 493.187 Q2253.47 495.803 2253.47 500.873 Q2253.47 505.988 2250.48 508.604 Q2247.52 511.22 2241.71 511.22 L2235.83 511.22 L2235.83 525.109 L2231.15 525.109 L2231.15 490.549 Z" fill="#000000" fill-rule="nonzero" fill-opacity="1" /><path clip-path="url(#clip150)" d="M2259.21 490.549 L2263.9 490.549 L2263.9 511.544 Q2263.9 517.099 2265.92 519.553 Q2267.93 521.984 2272.45 521.984 Q2276.94 521.984 2278.95 519.553 Q2280.96 517.099 2280.96 511.544 L2280.96 490.549 L2285.66 490.549 L2285.66 512.123 Q2285.66 518.882 2282.31 522.331 Q2278.97 525.78 2272.45 525.78 Q2265.9 525.78 2262.54 522.331 Q2259.21 518.882 2259.21 512.123 L2259.21 490.549 Z" fill="#000000" fill-rule="nonzero" fill-opacity="1" /></svg>
